<?xml version="1.0" encoding="utf-8" standalone="no"?>
<!DOCTYPE svg PUBLIC "-//W3C//DTD SVG 1.1//EN"
  "http://www.w3.org/Graphics/SVG/1.1/DTD/svg11.dtd">
<!-- Created with matplotlib (http://matplotlib.org/) -->
<svg height="648pt" version="1.1" viewBox="0 0 648 648" width="648pt" xmlns="http://www.w3.org/2000/svg" xmlns:xlink="http://www.w3.org/1999/xlink">
 <defs>
  <style type="text/css">
*{stroke-linecap:butt;stroke-linejoin:round;}
  </style>
 </defs>
 <g id="figure_1">
  <g id="patch_1">
   <path d="M 0 648 
L 648 648 
L 648 0 
L 0 0 
z
" style="fill:#ffffff;"/>
  </g>
  <g id="axes_1">
   <g id="patch_2">
    <path d="M 54.61 620.12 
L 634.68 620.12 
L 634.68 26.88 
L 54.61 26.88 
z
" style="fill:#ffffff;"/>
   </g>
   <g id="PathCollection_1">
    <defs>
     <path d="M 0 3 
C 0.795609 3 1.55874 2.683901 2.12132 2.12132 
C 2.683901 1.55874 3 0.795609 3 0 
C 3 -0.795609 2.683901 -1.55874 2.12132 -2.12132 
C 1.55874 -2.683901 0.795609 -3 0 -3 
C -0.795609 -3 -1.55874 -2.683901 -2.12132 -2.12132 
C -2.683901 -1.55874 -3 -0.795609 -3 0 
C -3 0.795609 -2.683901 1.55874 -2.12132 2.12132 
C -1.55874 2.683901 -0.795609 3 0 3 
z
" id="m4120797652" style="stroke:#000000;"/>
    </defs>
    <g clip-path="url(#p1466119888)">
     <use style="stroke:#000000;" x="123.448524" xlink:href="#m4120797652" y="341.028995"/>
     <use style="stroke:#000000;" x="147.080989" xlink:href="#m4120797652" y="191.931249"/>
     <use style="stroke:#000000;" x="123.162558" xlink:href="#m4120797652" y="349.377878"/>
     <use style="stroke:#000000;" x="116.988342" xlink:href="#m4120797652" y="349.986174"/>
     <use style="stroke:#000000;" x="312.503678" xlink:href="#m4120797652" y="118.930519"/>
     <use style="stroke:#000000;" x="129.448005" xlink:href="#m4120797652" y="358.751116"/>
     <use style="stroke:#000000;" x="126.868372" xlink:href="#m4120797652" y="354.338204"/>
     <use style="stroke:#000000;" x="124.055102" xlink:href="#m4120797652" y="355.153259"/>
     <use style="stroke:#000000;" x="333.116003" xlink:href="#m4120797652" y="291.567661"/>
     <use style="stroke:#000000;" x="140.839668" xlink:href="#m4120797652" y="175.490179"/>
     <use style="stroke:#000000;" x="127.240283" xlink:href="#m4120797652" y="341.434978"/>
     <use style="stroke:#000000;" x="114.882184" xlink:href="#m4120797652" y="293.282857"/>
     <use style="stroke:#000000;" x="115.591974" xlink:href="#m4120797652" y="256.946748"/>
     <use style="stroke:#000000;" x="153.862345" xlink:href="#m4120797652" y="213.030679"/>
     <use style="stroke:#000000;" x="305.113766" xlink:href="#m4120797652" y="207.60292"/>
     <use style="stroke:#000000;" x="104.795672" xlink:href="#m4120797652" y="212.845341"/>
     <use style="stroke:#000000;" x="406.354891" xlink:href="#m4120797652" y="205.554803"/>
     <use style="stroke:#000000;" x="118.197916" xlink:href="#m4120797652" y="287.43865"/>
     <use style="stroke:#000000;" x="116.11557" xlink:href="#m4120797652" y="276.455962"/>
     <use style="stroke:#000000;" x="329.830325" xlink:href="#m4120797652" y="275.891088"/>
     <use style="stroke:#000000;" x="541.957695" xlink:href="#m4120797652" y="445.530648"/>
     <use style="stroke:#000000;" x="138.920683" xlink:href="#m4120797652" y="148.405455"/>
     <use style="stroke:#000000;" x="127.392941" xlink:href="#m4120797652" y="298.804176"/>
     <use style="stroke:#000000;" x="174.255554" xlink:href="#m4120797652" y="166.999073"/>
     <use style="stroke:#000000;" x="396.553875" xlink:href="#m4120797652" y="451.447247"/>
     <use style="stroke:#000000;" x="112.257966" xlink:href="#m4120797652" y="277.782999"/>
     <use style="stroke:#000000;" x="120.332764" xlink:href="#m4120797652" y="258.594744"/>
     <use style="stroke:#000000;" x="401.987467" xlink:href="#m4120797652" y="157.547274"/>
     <use style="stroke:#000000;" x="124.842525" xlink:href="#m4120797652" y="300.686448"/>
     <use style="stroke:#000000;" x="117.956356" xlink:href="#m4120797652" y="275.772821"/>
     <use style="stroke:#000000;" x="146.212183" xlink:href="#m4120797652" y="182.98166"/>
     <use style="stroke:#000000;" x="113.54838" xlink:href="#m4120797652" y="242.562402"/>
     <use style="stroke:#000000;" x="108.759922" xlink:href="#m4120797652" y="328.23501"/>
     <use style="stroke:#000000;" x="386.63837" xlink:href="#m4120797652" y="225.595621"/>
     <use style="stroke:#000000;" x="112.855279" xlink:href="#m4120797652" y="275.022451"/>
     <use style="stroke:#000000;" x="100.344939" xlink:href="#m4120797652" y="255.189534"/>
     <use style="stroke:#000000;" x="117.859978" xlink:href="#m4120797652" y="297.77066"/>
     <use style="stroke:#000000;" x="112.311465" xlink:href="#m4120797652" y="286.804171"/>
     <use style="stroke:#000000;" x="126.252542" xlink:href="#m4120797652" y="306.723335"/>
     <use style="stroke:#000000;" x="217.03036" xlink:href="#m4120797652" y="67.249995"/>
     <use style="stroke:#000000;" x="90.858348" xlink:href="#m4120797652" y="189.934725"/>
     <use style="stroke:#000000;" x="113.734709" xlink:href="#m4120797652" y="287.089643"/>
     <use style="stroke:#000000;" x="146.169195" xlink:href="#m4120797652" y="153.538107"/>
     <use style="stroke:#000000;" x="97.776471" xlink:href="#m4120797652" y="194.681377"/>
     <use style="stroke:#000000;" x="121.142639" xlink:href="#m4120797652" y="275.831293"/>
     <use style="stroke:#000000;" x="114.332631" xlink:href="#m4120797652" y="244.653772"/>
     <use style="stroke:#000000;" x="397.159394" xlink:href="#m4120797652" y="453.553305"/>
     <use style="stroke:#000000;" x="123.136353" xlink:href="#m4120797652" y="290.033743"/>
     <use style="stroke:#000000;" x="267.093727" xlink:href="#m4120797652" y="175.968118"/>
     <use style="stroke:#000000;" x="199.043725" xlink:href="#m4120797652" y="278.052388"/>
     <use style="stroke:#000000;" x="108.188859" xlink:href="#m4120797652" y="385.325927"/>
     <use style="stroke:#000000;" x="138.448407" xlink:href="#m4120797652" y="388.418844"/>
     <use style="stroke:#000000;" x="425.400752" xlink:href="#m4120797652" y="579.750005"/>
     <use style="stroke:#000000;" x="153.152276" xlink:href="#m4120797652" y="182.165812"/>
     <use style="stroke:#000000;" x="117.281232" xlink:href="#m4120797652" y="280.118394"/>
     <use style="stroke:#000000;" x="109.965126" xlink:href="#m4120797652" y="258.855736"/>
     <use style="stroke:#000000;" x="270.270353" xlink:href="#m4120797652" y="241.044315"/>
     <use style="stroke:#000000;" x="119.921108" xlink:href="#m4120797652" y="310.867675"/>
     <use style="stroke:#000000;" x="129.26845" xlink:href="#m4120797652" y="308.468343"/>
     <use style="stroke:#000000;" x="125.561669" xlink:href="#m4120797652" y="308.689474"/>
     <use style="stroke:#000000;" x="143.304604" xlink:href="#m4120797652" y="140.481381"/>
     <use style="stroke:#000000;" x="214.59976" xlink:href="#m4120797652" y="204.955029"/>
     <use style="stroke:#000000;" x="123.117818" xlink:href="#m4120797652" y="271.891975"/>
     <use style="stroke:#000000;" x="151.774337" xlink:href="#m4120797652" y="208.372641"/>
     <use style="stroke:#000000;" x="203.154621" xlink:href="#m4120797652" y="222.733301"/>
     <use style="stroke:#000000;" x="122.985397" xlink:href="#m4120797652" y="337.29312"/>
     <use style="stroke:#000000;" x="292.567797" xlink:href="#m4120797652" y="175.940246"/>
     <use style="stroke:#000000;" x="114.705023" xlink:href="#m4120797652" y="259.271169"/>
     <use style="stroke:#000000;" x="139.347355" xlink:href="#m4120797652" y="134.028835"/>
     <use style="stroke:#000000;" x="151.087167" xlink:href="#m4120797652" y="182.820998"/>
     <use style="stroke:#000000;" x="570.83576" xlink:href="#m4120797652" y="335.463762"/>
     <use style="stroke:#000000;" x="401.536119" xlink:href="#m4120797652" y="138.199629"/>
     <use style="stroke:#000000;" x="112.168182" xlink:href="#m4120797652" y="262.541341"/>
     <use style="stroke:#000000;" x="120.134503" xlink:href="#m4120797652" y="288.681612"/>
     <use style="stroke:#000000;" x="118.632256" xlink:href="#m4120797652" y="288.168367"/>
     <use style="stroke:#000000;" x="127.16642" xlink:href="#m4120797652" y="354.239017"/>
     <use style="stroke:#000000;" x="269.572679" xlink:href="#m4120797652" y="267.308117"/>
     <use style="stroke:#000000;" x="122.673486" xlink:href="#m4120797652" y="297.522711"/>
     <use style="stroke:#000000;" x="145.630125" xlink:href="#m4120797652" y="169.452691"/>
     <use style="stroke:#000000;" x="117.224292" xlink:href="#m4120797652" y="283.837611"/>
     <use style="stroke:#000000;" x="465.156764" xlink:href="#m4120797652" y="289.151249"/>
     <use style="stroke:#000000;" x="359.84393" xlink:href="#m4120797652" y="103.046138"/>
     <use style="stroke:#000000;" x="598.431652" xlink:href="#m4120797652" y="88.561949"/>
    </g>
   </g>
   <g id="matplotlib.axis_1">
    <g id="xtick_1">
     <g id="line2d_1">
      <defs>
       <path d="M 0 0 
L 0 3.5 
" id="m848b6b1d2b" style="stroke:#000000;stroke-width:0.8;"/>
      </defs>
      <g>
       <use style="stroke:#000000;stroke-width:0.8;" x="76.950386" xlink:href="#m848b6b1d2b" y="620.12"/>
      </g>
     </g>
     <g id="text_1">
      <!-- −0.05 -->
      <defs>
       <path d="M 10.59375 35.5 
L 73.1875 35.5 
L 73.1875 27.203125 
L 10.59375 27.203125 
z
" id="DejaVuSans-2212"/>
       <path d="M 31.78125 66.40625 
Q 24.171875 66.40625 20.328125 58.90625 
Q 16.5 51.421875 16.5 36.375 
Q 16.5 21.390625 20.328125 13.890625 
Q 24.171875 6.390625 31.78125 6.390625 
Q 39.453125 6.390625 43.28125 13.890625 
Q 47.125 21.390625 47.125 36.375 
Q 47.125 51.421875 43.28125 58.90625 
Q 39.453125 66.40625 31.78125 66.40625 
z
M 31.78125 74.21875 
Q 44.046875 74.21875 50.515625 64.515625 
Q 56.984375 54.828125 56.984375 36.375 
Q 56.984375 17.96875 50.515625 8.265625 
Q 44.046875 -1.421875 31.78125 -1.421875 
Q 19.53125 -1.421875 13.0625 8.265625 
Q 6.59375 17.96875 6.59375 36.375 
Q 6.59375 54.828125 13.0625 64.515625 
Q 19.53125 74.21875 31.78125 74.21875 
z
" id="DejaVuSans-30"/>
       <path d="M 10.6875 12.40625 
L 21 12.40625 
L 21 0 
L 10.6875 0 
z
" id="DejaVuSans-2e"/>
       <path d="M 10.796875 72.90625 
L 49.515625 72.90625 
L 49.515625 64.59375 
L 19.828125 64.59375 
L 19.828125 46.734375 
Q 21.96875 47.46875 24.109375 47.828125 
Q 26.265625 48.1875 28.421875 48.1875 
Q 40.625 48.1875 47.75 41.5 
Q 54.890625 34.8125 54.890625 23.390625 
Q 54.890625 11.625 47.5625 5.09375 
Q 40.234375 -1.421875 26.90625 -1.421875 
Q 22.3125 -1.421875 17.546875 -0.640625 
Q 12.796875 0.140625 7.71875 1.703125 
L 7.71875 11.625 
Q 12.109375 9.234375 16.796875 8.0625 
Q 21.484375 6.890625 26.703125 6.890625 
Q 35.15625 6.890625 40.078125 11.328125 
Q 45.015625 15.765625 45.015625 23.390625 
Q 45.015625 31 40.078125 35.4375 
Q 35.15625 39.890625 26.703125 39.890625 
Q 22.75 39.890625 18.8125 39.015625 
Q 14.890625 38.140625 10.796875 36.28125 
z
" id="DejaVuSans-35"/>
      </defs>
      <g transform="translate(61.62773 634.718438)scale(0.1 -0.1)">
       <use xlink:href="#DejaVuSans-2212"/>
       <use x="83.789062" xlink:href="#DejaVuSans-30"/>
       <use x="147.412109" xlink:href="#DejaVuSans-2e"/>
       <use x="179.199219" xlink:href="#DejaVuSans-30"/>
       <use x="242.822266" xlink:href="#DejaVuSans-35"/>
      </g>
     </g>
    </g>
    <g id="xtick_2">
     <g id="line2d_2">
      <g>
       <use style="stroke:#000000;stroke-width:0.8;" x="191.823167" xlink:href="#m848b6b1d2b" y="620.12"/>
      </g>
     </g>
     <g id="text_2">
      <!-- 0.00 -->
      <g transform="translate(180.690355 634.718438)scale(0.1 -0.1)">
       <use xlink:href="#DejaVuSans-30"/>
       <use x="63.623047" xlink:href="#DejaVuSans-2e"/>
       <use x="95.410156" xlink:href="#DejaVuSans-30"/>
       <use x="159.033203" xlink:href="#DejaVuSans-30"/>
      </g>
     </g>
    </g>
    <g id="xtick_3">
     <g id="line2d_3">
      <g>
       <use style="stroke:#000000;stroke-width:0.8;" x="306.695948" xlink:href="#m848b6b1d2b" y="620.12"/>
      </g>
     </g>
     <g id="text_3">
      <!-- 0.05 -->
      <g transform="translate(295.563136 634.718438)scale(0.1 -0.1)">
       <use xlink:href="#DejaVuSans-30"/>
       <use x="63.623047" xlink:href="#DejaVuSans-2e"/>
       <use x="95.410156" xlink:href="#DejaVuSans-30"/>
       <use x="159.033203" xlink:href="#DejaVuSans-35"/>
      </g>
     </g>
    </g>
    <g id="xtick_4">
     <g id="line2d_4">
      <g>
       <use style="stroke:#000000;stroke-width:0.8;" x="421.568729" xlink:href="#m848b6b1d2b" y="620.12"/>
      </g>
     </g>
     <g id="text_4">
      <!-- 0.10 -->
      <defs>
       <path d="M 12.40625 8.296875 
L 28.515625 8.296875 
L 28.515625 63.921875 
L 10.984375 60.40625 
L 10.984375 69.390625 
L 28.421875 72.90625 
L 38.28125 72.90625 
L 38.28125 8.296875 
L 54.390625 8.296875 
L 54.390625 0 
L 12.40625 0 
z
" id="DejaVuSans-31"/>
      </defs>
      <g transform="translate(410.435917 634.718438)scale(0.1 -0.1)">
       <use xlink:href="#DejaVuSans-30"/>
       <use x="63.623047" xlink:href="#DejaVuSans-2e"/>
       <use x="95.410156" xlink:href="#DejaVuSans-31"/>
       <use x="159.033203" xlink:href="#DejaVuSans-30"/>
      </g>
     </g>
    </g>
    <g id="xtick_5">
     <g id="line2d_5">
      <g>
       <use style="stroke:#000000;stroke-width:0.8;" x="536.44151" xlink:href="#m848b6b1d2b" y="620.12"/>
      </g>
     </g>
     <g id="text_5">
      <!-- 0.15 -->
      <g transform="translate(525.308698 634.718438)scale(0.1 -0.1)">
       <use xlink:href="#DejaVuSans-30"/>
       <use x="63.623047" xlink:href="#DejaVuSans-2e"/>
       <use x="95.410156" xlink:href="#DejaVuSans-31"/>
       <use x="159.033203" xlink:href="#DejaVuSans-35"/>
      </g>
     </g>
    </g>
   </g>
   <g id="matplotlib.axis_2">
    <g id="ytick_1">
     <g id="line2d_6">
      <defs>
       <path d="M 0 0 
L -3.5 0 
" id="m0a39e223dd" style="stroke:#000000;stroke-width:0.8;"/>
      </defs>
      <g>
       <use style="stroke:#000000;stroke-width:0.8;" x="54.61" xlink:href="#m0a39e223dd" y="572.268364"/>
      </g>
     </g>
     <g id="text_6">
      <!-- −0.100 -->
      <g transform="translate(10.602188 576.067583)scale(0.1 -0.1)">
       <use xlink:href="#DejaVuSans-2212"/>
       <use x="83.789062" xlink:href="#DejaVuSans-30"/>
       <use x="147.412109" xlink:href="#DejaVuSans-2e"/>
       <use x="179.199219" xlink:href="#DejaVuSans-31"/>
       <use x="242.822266" xlink:href="#DejaVuSans-30"/>
       <use x="306.445312" xlink:href="#DejaVuSans-30"/>
      </g>
     </g>
    </g>
    <g id="ytick_2">
     <g id="line2d_7">
      <g>
       <use style="stroke:#000000;stroke-width:0.8;" x="54.61" xlink:href="#m0a39e223dd" y="494.857143"/>
      </g>
     </g>
     <g id="text_7">
      <!-- −0.075 -->
      <defs>
       <path d="M 8.203125 72.90625 
L 55.078125 72.90625 
L 55.078125 68.703125 
L 28.609375 0 
L 18.3125 0 
L 43.21875 64.59375 
L 8.203125 64.59375 
z
" id="DejaVuSans-37"/>
      </defs>
      <g transform="translate(10.602188 498.656362)scale(0.1 -0.1)">
       <use xlink:href="#DejaVuSans-2212"/>
       <use x="83.789062" xlink:href="#DejaVuSans-30"/>
       <use x="147.412109" xlink:href="#DejaVuSans-2e"/>
       <use x="179.199219" xlink:href="#DejaVuSans-30"/>
       <use x="242.822266" xlink:href="#DejaVuSans-37"/>
       <use x="306.445312" xlink:href="#DejaVuSans-35"/>
      </g>
     </g>
    </g>
    <g id="ytick_3">
     <g id="line2d_8">
      <g>
       <use style="stroke:#000000;stroke-width:0.8;" x="54.61" xlink:href="#m0a39e223dd" y="417.445922"/>
      </g>
     </g>
     <g id="text_8">
      <!-- −0.050 -->
      <g transform="translate(10.602188 421.245141)scale(0.1 -0.1)">
       <use xlink:href="#DejaVuSans-2212"/>
       <use x="83.789062" xlink:href="#DejaVuSans-30"/>
       <use x="147.412109" xlink:href="#DejaVuSans-2e"/>
       <use x="179.199219" xlink:href="#DejaVuSans-30"/>
       <use x="242.822266" xlink:href="#DejaVuSans-35"/>
       <use x="306.445312" xlink:href="#DejaVuSans-30"/>
      </g>
     </g>
    </g>
    <g id="ytick_4">
     <g id="line2d_9">
      <g>
       <use style="stroke:#000000;stroke-width:0.8;" x="54.61" xlink:href="#m0a39e223dd" y="340.034701"/>
      </g>
     </g>
     <g id="text_9">
      <!-- −0.025 -->
      <defs>
       <path d="M 19.1875 8.296875 
L 53.609375 8.296875 
L 53.609375 0 
L 7.328125 0 
L 7.328125 8.296875 
Q 12.9375 14.109375 22.625 23.890625 
Q 32.328125 33.6875 34.8125 36.53125 
Q 39.546875 41.84375 41.421875 45.53125 
Q 43.3125 49.21875 43.3125 52.78125 
Q 43.3125 58.59375 39.234375 62.25 
Q 35.15625 65.921875 28.609375 65.921875 
Q 23.96875 65.921875 18.8125 64.3125 
Q 13.671875 62.703125 7.8125 59.421875 
L 7.8125 69.390625 
Q 13.765625 71.78125 18.9375 73 
Q 24.125 74.21875 28.421875 74.21875 
Q 39.75 74.21875 46.484375 68.546875 
Q 53.21875 62.890625 53.21875 53.421875 
Q 53.21875 48.921875 51.53125 44.890625 
Q 49.859375 40.875 45.40625 35.40625 
Q 44.1875 33.984375 37.640625 27.21875 
Q 31.109375 20.453125 19.1875 8.296875 
z
" id="DejaVuSans-32"/>
      </defs>
      <g transform="translate(10.602188 343.83392)scale(0.1 -0.1)">
       <use xlink:href="#DejaVuSans-2212"/>
       <use x="83.789062" xlink:href="#DejaVuSans-30"/>
       <use x="147.412109" xlink:href="#DejaVuSans-2e"/>
       <use x="179.199219" xlink:href="#DejaVuSans-30"/>
       <use x="242.822266" xlink:href="#DejaVuSans-32"/>
       <use x="306.445312" xlink:href="#DejaVuSans-35"/>
      </g>
     </g>
    </g>
    <g id="ytick_5">
     <g id="line2d_10">
      <g>
       <use style="stroke:#000000;stroke-width:0.8;" x="54.61" xlink:href="#m0a39e223dd" y="262.62348"/>
      </g>
     </g>
     <g id="text_10">
      <!-- 0.000 -->
      <g transform="translate(18.981875 266.422699)scale(0.1 -0.1)">
       <use xlink:href="#DejaVuSans-30"/>
       <use x="63.623047" xlink:href="#DejaVuSans-2e"/>
       <use x="95.410156" xlink:href="#DejaVuSans-30"/>
       <use x="159.033203" xlink:href="#DejaVuSans-30"/>
       <use x="222.65625" xlink:href="#DejaVuSans-30"/>
      </g>
     </g>
    </g>
    <g id="ytick_6">
     <g id="line2d_11">
      <g>
       <use style="stroke:#000000;stroke-width:0.8;" x="54.61" xlink:href="#m0a39e223dd" y="185.212259"/>
      </g>
     </g>
     <g id="text_11">
      <!-- 0.025 -->
      <g transform="translate(18.981875 189.011478)scale(0.1 -0.1)">
       <use xlink:href="#DejaVuSans-30"/>
       <use x="63.623047" xlink:href="#DejaVuSans-2e"/>
       <use x="95.410156" xlink:href="#DejaVuSans-30"/>
       <use x="159.033203" xlink:href="#DejaVuSans-32"/>
       <use x="222.65625" xlink:href="#DejaVuSans-35"/>
      </g>
     </g>
    </g>
    <g id="ytick_7">
     <g id="line2d_12">
      <g>
       <use style="stroke:#000000;stroke-width:0.8;" x="54.61" xlink:href="#m0a39e223dd" y="107.801038"/>
      </g>
     </g>
     <g id="text_12">
      <!-- 0.050 -->
      <g transform="translate(18.981875 111.600257)scale(0.1 -0.1)">
       <use xlink:href="#DejaVuSans-30"/>
       <use x="63.623047" xlink:href="#DejaVuSans-2e"/>
       <use x="95.410156" xlink:href="#DejaVuSans-30"/>
       <use x="159.033203" xlink:href="#DejaVuSans-35"/>
       <use x="222.65625" xlink:href="#DejaVuSans-30"/>
      </g>
     </g>
    </g>
    <g id="ytick_8">
     <g id="line2d_13">
      <g>
       <use style="stroke:#000000;stroke-width:0.8;" x="54.61" xlink:href="#m0a39e223dd" y="30.389817"/>
      </g>
     </g>
     <g id="text_13">
      <!-- 0.075 -->
      <g transform="translate(18.981875 34.189036)scale(0.1 -0.1)">
       <use xlink:href="#DejaVuSans-30"/>
       <use x="63.623047" xlink:href="#DejaVuSans-2e"/>
       <use x="95.410156" xlink:href="#DejaVuSans-30"/>
       <use x="159.033203" xlink:href="#DejaVuSans-37"/>
       <use x="222.65625" xlink:href="#DejaVuSans-35"/>
      </g>
     </g>
    </g>
   </g>
   <g id="patch_3">
    <path d="M 54.61 620.12 
L 54.61 26.88 
" style="fill:none;stroke:#000000;stroke-linecap:square;stroke-linejoin:miter;stroke-width:0.8;"/>
   </g>
   <g id="patch_4">
    <path d="M 634.68 620.12 
L 634.68 26.88 
" style="fill:none;stroke:#000000;stroke-linecap:square;stroke-linejoin:miter;stroke-width:0.8;"/>
   </g>
   <g id="patch_5">
    <path d="M 54.61 620.12 
L 634.68 620.12 
" style="fill:none;stroke:#000000;stroke-linecap:square;stroke-linejoin:miter;stroke-width:0.8;"/>
   </g>
   <g id="patch_6">
    <path d="M 54.61 26.88 
L 634.68 26.88 
" style="fill:none;stroke:#000000;stroke-linecap:square;stroke-linejoin:miter;stroke-width:0.8;"/>
   </g>
   <g id="text_14">
    <!-- HP101 -->
    <defs>
     <path d="M 9.8125 72.90625 
L 19.671875 72.90625 
L 19.671875 43.015625 
L 55.515625 43.015625 
L 55.515625 72.90625 
L 65.375 72.90625 
L 65.375 0 
L 55.515625 0 
L 55.515625 34.71875 
L 19.671875 34.71875 
L 19.671875 0 
L 9.8125 0 
z
" id="DejaVuSans-48"/>
     <path d="M 19.671875 64.796875 
L 19.671875 37.40625 
L 32.078125 37.40625 
Q 38.96875 37.40625 42.71875 40.96875 
Q 46.484375 44.53125 46.484375 51.125 
Q 46.484375 57.671875 42.71875 61.234375 
Q 38.96875 64.796875 32.078125 64.796875 
z
M 9.8125 72.90625 
L 32.078125 72.90625 
Q 44.34375 72.90625 50.609375 67.359375 
Q 56.890625 61.8125 56.890625 51.125 
Q 56.890625 40.328125 50.609375 34.8125 
Q 44.34375 29.296875 32.078125 29.296875 
L 19.671875 29.296875 
L 19.671875 0 
L 9.8125 0 
z
" id="DejaVuSans-50"/>
    </defs>
    <g transform="translate(123.448524 341.028995)scale(0.1 -0.1)">
     <use xlink:href="#DejaVuSans-48"/>
     <use x="75.195312" xlink:href="#DejaVuSans-50"/>
     <use x="135.498047" xlink:href="#DejaVuSans-31"/>
     <use x="199.121094" xlink:href="#DejaVuSans-30"/>
     <use x="262.744141" xlink:href="#DejaVuSans-31"/>
    </g>
   </g>
   <g id="text_15">
    <!-- HP104 -->
    <defs>
     <path d="M 37.796875 64.3125 
L 12.890625 25.390625 
L 37.796875 25.390625 
z
M 35.203125 72.90625 
L 47.609375 72.90625 
L 47.609375 25.390625 
L 58.015625 25.390625 
L 58.015625 17.1875 
L 47.609375 17.1875 
L 47.609375 0 
L 37.796875 0 
L 37.796875 17.1875 
L 4.890625 17.1875 
L 4.890625 26.703125 
z
" id="DejaVuSans-34"/>
    </defs>
    <g transform="translate(147.080989 191.931249)scale(0.1 -0.1)">
     <use xlink:href="#DejaVuSans-48"/>
     <use x="75.195312" xlink:href="#DejaVuSans-50"/>
     <use x="135.498047" xlink:href="#DejaVuSans-31"/>
     <use x="199.121094" xlink:href="#DejaVuSans-30"/>
     <use x="262.744141" xlink:href="#DejaVuSans-34"/>
    </g>
   </g>
   <g id="text_16">
    <!-- HP111 -->
    <g transform="translate(123.162558 349.377878)scale(0.1 -0.1)">
     <use xlink:href="#DejaVuSans-48"/>
     <use x="75.195312" xlink:href="#DejaVuSans-50"/>
     <use x="135.498047" xlink:href="#DejaVuSans-31"/>
     <use x="199.121094" xlink:href="#DejaVuSans-31"/>
     <use x="262.744141" xlink:href="#DejaVuSans-31"/>
    </g>
   </g>
   <g id="text_17">
    <!-- HP115 -->
    <g transform="translate(116.988342 349.986174)scale(0.1 -0.1)">
     <use xlink:href="#DejaVuSans-48"/>
     <use x="75.195312" xlink:href="#DejaVuSans-50"/>
     <use x="135.498047" xlink:href="#DejaVuSans-31"/>
     <use x="199.121094" xlink:href="#DejaVuSans-31"/>
     <use x="262.744141" xlink:href="#DejaVuSans-35"/>
    </g>
   </g>
   <g id="text_18">
    <!-- HP116 -->
    <defs>
     <path d="M 33.015625 40.375 
Q 26.375 40.375 22.484375 35.828125 
Q 18.609375 31.296875 18.609375 23.390625 
Q 18.609375 15.53125 22.484375 10.953125 
Q 26.375 6.390625 33.015625 6.390625 
Q 39.65625 6.390625 43.53125 10.953125 
Q 47.40625 15.53125 47.40625 23.390625 
Q 47.40625 31.296875 43.53125 35.828125 
Q 39.65625 40.375 33.015625 40.375 
z
M 52.59375 71.296875 
L 52.59375 62.3125 
Q 48.875 64.0625 45.09375 64.984375 
Q 41.3125 65.921875 37.59375 65.921875 
Q 27.828125 65.921875 22.671875 59.328125 
Q 17.53125 52.734375 16.796875 39.40625 
Q 19.671875 43.65625 24.015625 45.921875 
Q 28.375 48.1875 33.59375 48.1875 
Q 44.578125 48.1875 50.953125 41.515625 
Q 57.328125 34.859375 57.328125 23.390625 
Q 57.328125 12.15625 50.6875 5.359375 
Q 44.046875 -1.421875 33.015625 -1.421875 
Q 20.359375 -1.421875 13.671875 8.265625 
Q 6.984375 17.96875 6.984375 36.375 
Q 6.984375 53.65625 15.1875 63.9375 
Q 23.390625 74.21875 37.203125 74.21875 
Q 40.921875 74.21875 44.703125 73.484375 
Q 48.484375 72.75 52.59375 71.296875 
z
" id="DejaVuSans-36"/>
    </defs>
    <g transform="translate(312.503678 118.930519)scale(0.1 -0.1)">
     <use xlink:href="#DejaVuSans-48"/>
     <use x="75.195312" xlink:href="#DejaVuSans-50"/>
     <use x="135.498047" xlink:href="#DejaVuSans-31"/>
     <use x="199.121094" xlink:href="#DejaVuSans-31"/>
     <use x="262.744141" xlink:href="#DejaVuSans-36"/>
    </g>
   </g>
   <g id="text_19">
    <!-- HP127 -->
    <g transform="translate(129.448005 358.751116)scale(0.1 -0.1)">
     <use xlink:href="#DejaVuSans-48"/>
     <use x="75.195312" xlink:href="#DejaVuSans-50"/>
     <use x="135.498047" xlink:href="#DejaVuSans-31"/>
     <use x="199.121094" xlink:href="#DejaVuSans-32"/>
     <use x="262.744141" xlink:href="#DejaVuSans-37"/>
    </g>
   </g>
   <g id="text_20">
    <!-- HP130 -->
    <defs>
     <path d="M 40.578125 39.3125 
Q 47.65625 37.796875 51.625 33 
Q 55.609375 28.21875 55.609375 21.1875 
Q 55.609375 10.40625 48.1875 4.484375 
Q 40.765625 -1.421875 27.09375 -1.421875 
Q 22.515625 -1.421875 17.65625 -0.515625 
Q 12.796875 0.390625 7.625 2.203125 
L 7.625 11.71875 
Q 11.71875 9.328125 16.59375 8.109375 
Q 21.484375 6.890625 26.8125 6.890625 
Q 36.078125 6.890625 40.9375 10.546875 
Q 45.796875 14.203125 45.796875 21.1875 
Q 45.796875 27.640625 41.28125 31.265625 
Q 36.765625 34.90625 28.71875 34.90625 
L 20.21875 34.90625 
L 20.21875 43.015625 
L 29.109375 43.015625 
Q 36.375 43.015625 40.234375 45.921875 
Q 44.09375 48.828125 44.09375 54.296875 
Q 44.09375 59.90625 40.109375 62.90625 
Q 36.140625 65.921875 28.71875 65.921875 
Q 24.65625 65.921875 20.015625 65.03125 
Q 15.375 64.15625 9.8125 62.3125 
L 9.8125 71.09375 
Q 15.4375 72.65625 20.34375 73.4375 
Q 25.25 74.21875 29.59375 74.21875 
Q 40.828125 74.21875 47.359375 69.109375 
Q 53.90625 64.015625 53.90625 55.328125 
Q 53.90625 49.265625 50.4375 45.09375 
Q 46.96875 40.921875 40.578125 39.3125 
z
" id="DejaVuSans-33"/>
    </defs>
    <g transform="translate(126.868372 354.338204)scale(0.1 -0.1)">
     <use xlink:href="#DejaVuSans-48"/>
     <use x="75.195312" xlink:href="#DejaVuSans-50"/>
     <use x="135.498047" xlink:href="#DejaVuSans-31"/>
     <use x="199.121094" xlink:href="#DejaVuSans-33"/>
     <use x="262.744141" xlink:href="#DejaVuSans-30"/>
    </g>
   </g>
   <g id="text_21">
    <!-- HP135 -->
    <g transform="translate(124.055102 355.153259)scale(0.1 -0.1)">
     <use xlink:href="#DejaVuSans-48"/>
     <use x="75.195312" xlink:href="#DejaVuSans-50"/>
     <use x="135.498047" xlink:href="#DejaVuSans-31"/>
     <use x="199.121094" xlink:href="#DejaVuSans-33"/>
     <use x="262.744141" xlink:href="#DejaVuSans-35"/>
    </g>
   </g>
   <g id="text_22">
    <!-- HP136 -->
    <g transform="translate(333.116003 291.567661)scale(0.1 -0.1)">
     <use xlink:href="#DejaVuSans-48"/>
     <use x="75.195312" xlink:href="#DejaVuSans-50"/>
     <use x="135.498047" xlink:href="#DejaVuSans-31"/>
     <use x="199.121094" xlink:href="#DejaVuSans-33"/>
     <use x="262.744141" xlink:href="#DejaVuSans-36"/>
    </g>
   </g>
   <g id="text_23">
    <!-- HP139 -->
    <defs>
     <path d="M 10.984375 1.515625 
L 10.984375 10.5 
Q 14.703125 8.734375 18.5 7.8125 
Q 22.3125 6.890625 25.984375 6.890625 
Q 35.75 6.890625 40.890625 13.453125 
Q 46.046875 20.015625 46.78125 33.40625 
Q 43.953125 29.203125 39.59375 26.953125 
Q 35.25 24.703125 29.984375 24.703125 
Q 19.046875 24.703125 12.671875 31.3125 
Q 6.296875 37.9375 6.296875 49.421875 
Q 6.296875 60.640625 12.9375 67.421875 
Q 19.578125 74.21875 30.609375 74.21875 
Q 43.265625 74.21875 49.921875 64.515625 
Q 56.59375 54.828125 56.59375 36.375 
Q 56.59375 19.140625 48.40625 8.859375 
Q 40.234375 -1.421875 26.421875 -1.421875 
Q 22.703125 -1.421875 18.890625 -0.6875 
Q 15.09375 0.046875 10.984375 1.515625 
z
M 30.609375 32.421875 
Q 37.25 32.421875 41.125 36.953125 
Q 45.015625 41.5 45.015625 49.421875 
Q 45.015625 57.28125 41.125 61.84375 
Q 37.25 66.40625 30.609375 66.40625 
Q 23.96875 66.40625 20.09375 61.84375 
Q 16.21875 57.28125 16.21875 49.421875 
Q 16.21875 41.5 20.09375 36.953125 
Q 23.96875 32.421875 30.609375 32.421875 
z
" id="DejaVuSans-39"/>
    </defs>
    <g transform="translate(140.839668 175.490179)scale(0.1 -0.1)">
     <use xlink:href="#DejaVuSans-48"/>
     <use x="75.195312" xlink:href="#DejaVuSans-50"/>
     <use x="135.498047" xlink:href="#DejaVuSans-31"/>
     <use x="199.121094" xlink:href="#DejaVuSans-33"/>
     <use x="262.744141" xlink:href="#DejaVuSans-39"/>
    </g>
   </g>
   <g id="text_24">
    <!-- HP141 -->
    <g transform="translate(127.240283 341.434978)scale(0.1 -0.1)">
     <use xlink:href="#DejaVuSans-48"/>
     <use x="75.195312" xlink:href="#DejaVuSans-50"/>
     <use x="135.498047" xlink:href="#DejaVuSans-31"/>
     <use x="199.121094" xlink:href="#DejaVuSans-34"/>
     <use x="262.744141" xlink:href="#DejaVuSans-31"/>
    </g>
   </g>
   <g id="text_25">
    <!-- HP152 -->
    <g transform="translate(114.882184 293.282857)scale(0.1 -0.1)">
     <use xlink:href="#DejaVuSans-48"/>
     <use x="75.195312" xlink:href="#DejaVuSans-50"/>
     <use x="135.498047" xlink:href="#DejaVuSans-31"/>
     <use x="199.121094" xlink:href="#DejaVuSans-35"/>
     <use x="262.744141" xlink:href="#DejaVuSans-32"/>
    </g>
   </g>
   <g id="text_26">
    <!-- HP158 -->
    <defs>
     <path d="M 31.78125 34.625 
Q 24.75 34.625 20.71875 30.859375 
Q 16.703125 27.09375 16.703125 20.515625 
Q 16.703125 13.921875 20.71875 10.15625 
Q 24.75 6.390625 31.78125 6.390625 
Q 38.8125 6.390625 42.859375 10.171875 
Q 46.921875 13.96875 46.921875 20.515625 
Q 46.921875 27.09375 42.890625 30.859375 
Q 38.875 34.625 31.78125 34.625 
z
M 21.921875 38.8125 
Q 15.578125 40.375 12.03125 44.71875 
Q 8.5 49.078125 8.5 55.328125 
Q 8.5 64.0625 14.71875 69.140625 
Q 20.953125 74.21875 31.78125 74.21875 
Q 42.671875 74.21875 48.875 69.140625 
Q 55.078125 64.0625 55.078125 55.328125 
Q 55.078125 49.078125 51.53125 44.71875 
Q 48 40.375 41.703125 38.8125 
Q 48.828125 37.15625 52.796875 32.3125 
Q 56.78125 27.484375 56.78125 20.515625 
Q 56.78125 9.90625 50.3125 4.234375 
Q 43.84375 -1.421875 31.78125 -1.421875 
Q 19.734375 -1.421875 13.25 4.234375 
Q 6.78125 9.90625 6.78125 20.515625 
Q 6.78125 27.484375 10.78125 32.3125 
Q 14.796875 37.15625 21.921875 38.8125 
z
M 18.3125 54.390625 
Q 18.3125 48.734375 21.84375 45.5625 
Q 25.390625 42.390625 31.78125 42.390625 
Q 38.140625 42.390625 41.71875 45.5625 
Q 45.3125 48.734375 45.3125 54.390625 
Q 45.3125 60.0625 41.71875 63.234375 
Q 38.140625 66.40625 31.78125 66.40625 
Q 25.390625 66.40625 21.84375 63.234375 
Q 18.3125 60.0625 18.3125 54.390625 
z
" id="DejaVuSans-38"/>
    </defs>
    <g transform="translate(115.591974 256.946748)scale(0.1 -0.1)">
     <use xlink:href="#DejaVuSans-48"/>
     <use x="75.195312" xlink:href="#DejaVuSans-50"/>
     <use x="135.498047" xlink:href="#DejaVuSans-31"/>
     <use x="199.121094" xlink:href="#DejaVuSans-35"/>
     <use x="262.744141" xlink:href="#DejaVuSans-38"/>
    </g>
   </g>
   <g id="text_27">
    <!-- HP169 -->
    <g transform="translate(153.862345 213.030679)scale(0.1 -0.1)">
     <use xlink:href="#DejaVuSans-48"/>
     <use x="75.195312" xlink:href="#DejaVuSans-50"/>
     <use x="135.498047" xlink:href="#DejaVuSans-31"/>
     <use x="199.121094" xlink:href="#DejaVuSans-36"/>
     <use x="262.744141" xlink:href="#DejaVuSans-39"/>
    </g>
   </g>
   <g id="text_28">
    <!-- HP172 -->
    <g transform="translate(305.113766 207.60292)scale(0.1 -0.1)">
     <use xlink:href="#DejaVuSans-48"/>
     <use x="75.195312" xlink:href="#DejaVuSans-50"/>
     <use x="135.498047" xlink:href="#DejaVuSans-31"/>
     <use x="199.121094" xlink:href="#DejaVuSans-37"/>
     <use x="262.744141" xlink:href="#DejaVuSans-32"/>
    </g>
   </g>
   <g id="text_29">
    <!-- HP173 -->
    <g transform="translate(104.795672 212.845341)scale(0.1 -0.1)">
     <use xlink:href="#DejaVuSans-48"/>
     <use x="75.195312" xlink:href="#DejaVuSans-50"/>
     <use x="135.498047" xlink:href="#DejaVuSans-31"/>
     <use x="199.121094" xlink:href="#DejaVuSans-37"/>
     <use x="262.744141" xlink:href="#DejaVuSans-33"/>
    </g>
   </g>
   <g id="text_30">
    <!-- HP176 -->
    <g transform="translate(406.354891 205.554803)scale(0.1 -0.1)">
     <use xlink:href="#DejaVuSans-48"/>
     <use x="75.195312" xlink:href="#DejaVuSans-50"/>
     <use x="135.498047" xlink:href="#DejaVuSans-31"/>
     <use x="199.121094" xlink:href="#DejaVuSans-37"/>
     <use x="262.744141" xlink:href="#DejaVuSans-36"/>
    </g>
   </g>
   <g id="text_31">
    <!-- HP179 -->
    <g transform="translate(118.197916 287.43865)scale(0.1 -0.1)">
     <use xlink:href="#DejaVuSans-48"/>
     <use x="75.195312" xlink:href="#DejaVuSans-50"/>
     <use x="135.498047" xlink:href="#DejaVuSans-31"/>
     <use x="199.121094" xlink:href="#DejaVuSans-37"/>
     <use x="262.744141" xlink:href="#DejaVuSans-39"/>
    </g>
   </g>
   <g id="text_32">
    <!-- HP182 -->
    <g transform="translate(116.11557 276.455962)scale(0.1 -0.1)">
     <use xlink:href="#DejaVuSans-48"/>
     <use x="75.195312" xlink:href="#DejaVuSans-50"/>
     <use x="135.498047" xlink:href="#DejaVuSans-31"/>
     <use x="199.121094" xlink:href="#DejaVuSans-38"/>
     <use x="262.744141" xlink:href="#DejaVuSans-32"/>
    </g>
   </g>
   <g id="text_33">
    <!-- HP192 -->
    <g transform="translate(329.830325 275.891088)scale(0.1 -0.1)">
     <use xlink:href="#DejaVuSans-48"/>
     <use x="75.195312" xlink:href="#DejaVuSans-50"/>
     <use x="135.498047" xlink:href="#DejaVuSans-31"/>
     <use x="199.121094" xlink:href="#DejaVuSans-39"/>
     <use x="262.744141" xlink:href="#DejaVuSans-32"/>
    </g>
   </g>
   <g id="text_34">
    <!-- HP194 -->
    <g transform="translate(541.957695 445.530648)scale(0.1 -0.1)">
     <use xlink:href="#DejaVuSans-48"/>
     <use x="75.195312" xlink:href="#DejaVuSans-50"/>
     <use x="135.498047" xlink:href="#DejaVuSans-31"/>
     <use x="199.121094" xlink:href="#DejaVuSans-39"/>
     <use x="262.744141" xlink:href="#DejaVuSans-34"/>
    </g>
   </g>
   <g id="text_35">
    <!-- HP199 -->
    <g transform="translate(138.920683 148.405455)scale(0.1 -0.1)">
     <use xlink:href="#DejaVuSans-48"/>
     <use x="75.195312" xlink:href="#DejaVuSans-50"/>
     <use x="135.498047" xlink:href="#DejaVuSans-31"/>
     <use x="199.121094" xlink:href="#DejaVuSans-39"/>
     <use x="262.744141" xlink:href="#DejaVuSans-39"/>
    </g>
   </g>
   <g id="text_36">
    <!-- HP200 -->
    <g transform="translate(127.392941 298.804176)scale(0.1 -0.1)">
     <use xlink:href="#DejaVuSans-48"/>
     <use x="75.195312" xlink:href="#DejaVuSans-50"/>
     <use x="135.498047" xlink:href="#DejaVuSans-32"/>
     <use x="199.121094" xlink:href="#DejaVuSans-30"/>
     <use x="262.744141" xlink:href="#DejaVuSans-30"/>
    </g>
   </g>
   <g id="text_37">
    <!-- HP202 -->
    <g transform="translate(174.255554 166.999073)scale(0.1 -0.1)">
     <use xlink:href="#DejaVuSans-48"/>
     <use x="75.195312" xlink:href="#DejaVuSans-50"/>
     <use x="135.498047" xlink:href="#DejaVuSans-32"/>
     <use x="199.121094" xlink:href="#DejaVuSans-30"/>
     <use x="262.744141" xlink:href="#DejaVuSans-32"/>
    </g>
   </g>
   <g id="text_38">
    <!-- HP204 -->
    <g transform="translate(396.553875 451.447247)scale(0.1 -0.1)">
     <use xlink:href="#DejaVuSans-48"/>
     <use x="75.195312" xlink:href="#DejaVuSans-50"/>
     <use x="135.498047" xlink:href="#DejaVuSans-32"/>
     <use x="199.121094" xlink:href="#DejaVuSans-30"/>
     <use x="262.744141" xlink:href="#DejaVuSans-34"/>
    </g>
   </g>
   <g id="text_39">
    <!-- HP205 -->
    <g transform="translate(112.257966 277.782999)scale(0.1 -0.1)">
     <use xlink:href="#DejaVuSans-48"/>
     <use x="75.195312" xlink:href="#DejaVuSans-50"/>
     <use x="135.498047" xlink:href="#DejaVuSans-32"/>
     <use x="199.121094" xlink:href="#DejaVuSans-30"/>
     <use x="262.744141" xlink:href="#DejaVuSans-35"/>
    </g>
   </g>
   <g id="text_40">
    <!-- HP206 -->
    <g transform="translate(120.332764 258.594744)scale(0.1 -0.1)">
     <use xlink:href="#DejaVuSans-48"/>
     <use x="75.195312" xlink:href="#DejaVuSans-50"/>
     <use x="135.498047" xlink:href="#DejaVuSans-32"/>
     <use x="199.121094" xlink:href="#DejaVuSans-30"/>
     <use x="262.744141" xlink:href="#DejaVuSans-36"/>
    </g>
   </g>
   <g id="text_41">
    <!-- HP208 -->
    <g transform="translate(401.987467 157.547274)scale(0.1 -0.1)">
     <use xlink:href="#DejaVuSans-48"/>
     <use x="75.195312" xlink:href="#DejaVuSans-50"/>
     <use x="135.498047" xlink:href="#DejaVuSans-32"/>
     <use x="199.121094" xlink:href="#DejaVuSans-30"/>
     <use x="262.744141" xlink:href="#DejaVuSans-38"/>
    </g>
   </g>
   <g id="text_42">
    <!-- HP220 -->
    <g transform="translate(124.842525 300.686448)scale(0.1 -0.1)">
     <use xlink:href="#DejaVuSans-48"/>
     <use x="75.195312" xlink:href="#DejaVuSans-50"/>
     <use x="135.498047" xlink:href="#DejaVuSans-32"/>
     <use x="199.121094" xlink:href="#DejaVuSans-32"/>
     <use x="262.744141" xlink:href="#DejaVuSans-30"/>
    </g>
   </g>
   <g id="text_43">
    <!-- HP227 -->
    <g transform="translate(117.956356 275.772821)scale(0.1 -0.1)">
     <use xlink:href="#DejaVuSans-48"/>
     <use x="75.195312" xlink:href="#DejaVuSans-50"/>
     <use x="135.498047" xlink:href="#DejaVuSans-32"/>
     <use x="199.121094" xlink:href="#DejaVuSans-32"/>
     <use x="262.744141" xlink:href="#DejaVuSans-37"/>
    </g>
   </g>
   <g id="text_44">
    <!-- HP232 -->
    <g transform="translate(146.212183 182.98166)scale(0.1 -0.1)">
     <use xlink:href="#DejaVuSans-48"/>
     <use x="75.195312" xlink:href="#DejaVuSans-50"/>
     <use x="135.498047" xlink:href="#DejaVuSans-32"/>
     <use x="199.121094" xlink:href="#DejaVuSans-33"/>
     <use x="262.744141" xlink:href="#DejaVuSans-32"/>
    </g>
   </g>
   <g id="text_45">
    <!-- HP235 -->
    <g transform="translate(113.54838 242.562402)scale(0.1 -0.1)">
     <use xlink:href="#DejaVuSans-48"/>
     <use x="75.195312" xlink:href="#DejaVuSans-50"/>
     <use x="135.498047" xlink:href="#DejaVuSans-32"/>
     <use x="199.121094" xlink:href="#DejaVuSans-33"/>
     <use x="262.744141" xlink:href="#DejaVuSans-35"/>
    </g>
   </g>
   <g id="text_46">
    <!-- HP236 -->
    <g transform="translate(108.759922 328.23501)scale(0.1 -0.1)">
     <use xlink:href="#DejaVuSans-48"/>
     <use x="75.195312" xlink:href="#DejaVuSans-50"/>
     <use x="135.498047" xlink:href="#DejaVuSans-32"/>
     <use x="199.121094" xlink:href="#DejaVuSans-33"/>
     <use x="262.744141" xlink:href="#DejaVuSans-36"/>
    </g>
   </g>
   <g id="text_47">
    <!-- HP238 -->
    <g transform="translate(386.63837 225.595621)scale(0.1 -0.1)">
     <use xlink:href="#DejaVuSans-48"/>
     <use x="75.195312" xlink:href="#DejaVuSans-50"/>
     <use x="135.498047" xlink:href="#DejaVuSans-32"/>
     <use x="199.121094" xlink:href="#DejaVuSans-33"/>
     <use x="262.744141" xlink:href="#DejaVuSans-38"/>
    </g>
   </g>
   <g id="text_48">
    <!-- HP241 -->
    <g transform="translate(112.855279 275.022451)scale(0.1 -0.1)">
     <use xlink:href="#DejaVuSans-48"/>
     <use x="75.195312" xlink:href="#DejaVuSans-50"/>
     <use x="135.498047" xlink:href="#DejaVuSans-32"/>
     <use x="199.121094" xlink:href="#DejaVuSans-34"/>
     <use x="262.744141" xlink:href="#DejaVuSans-31"/>
    </g>
   </g>
   <g id="text_49">
    <!-- HP244 -->
    <g transform="translate(100.344939 255.189534)scale(0.1 -0.1)">
     <use xlink:href="#DejaVuSans-48"/>
     <use x="75.195312" xlink:href="#DejaVuSans-50"/>
     <use x="135.498047" xlink:href="#DejaVuSans-32"/>
     <use x="199.121094" xlink:href="#DejaVuSans-34"/>
     <use x="262.744141" xlink:href="#DejaVuSans-34"/>
    </g>
   </g>
   <g id="text_50">
    <!-- HP247 -->
    <g transform="translate(117.859978 297.77066)scale(0.1 -0.1)">
     <use xlink:href="#DejaVuSans-48"/>
     <use x="75.195312" xlink:href="#DejaVuSans-50"/>
     <use x="135.498047" xlink:href="#DejaVuSans-32"/>
     <use x="199.121094" xlink:href="#DejaVuSans-34"/>
     <use x="262.744141" xlink:href="#DejaVuSans-37"/>
    </g>
   </g>
   <g id="text_51">
    <!-- HP250 -->
    <g transform="translate(112.311465 286.804171)scale(0.1 -0.1)">
     <use xlink:href="#DejaVuSans-48"/>
     <use x="75.195312" xlink:href="#DejaVuSans-50"/>
     <use x="135.498047" xlink:href="#DejaVuSans-32"/>
     <use x="199.121094" xlink:href="#DejaVuSans-35"/>
     <use x="262.744141" xlink:href="#DejaVuSans-30"/>
    </g>
   </g>
   <g id="text_52">
    <!-- HP251 -->
    <g transform="translate(126.252542 306.723335)scale(0.1 -0.1)">
     <use xlink:href="#DejaVuSans-48"/>
     <use x="75.195312" xlink:href="#DejaVuSans-50"/>
     <use x="135.498047" xlink:href="#DejaVuSans-32"/>
     <use x="199.121094" xlink:href="#DejaVuSans-35"/>
     <use x="262.744141" xlink:href="#DejaVuSans-31"/>
    </g>
   </g>
   <g id="text_53">
    <!-- HP258 -->
    <g transform="translate(217.03036 67.249995)scale(0.1 -0.1)">
     <use xlink:href="#DejaVuSans-48"/>
     <use x="75.195312" xlink:href="#DejaVuSans-50"/>
     <use x="135.498047" xlink:href="#DejaVuSans-32"/>
     <use x="199.121094" xlink:href="#DejaVuSans-35"/>
     <use x="262.744141" xlink:href="#DejaVuSans-38"/>
    </g>
   </g>
   <g id="text_54">
    <!-- HP259 -->
    <g transform="translate(90.858348 189.934725)scale(0.1 -0.1)">
     <use xlink:href="#DejaVuSans-48"/>
     <use x="75.195312" xlink:href="#DejaVuSans-50"/>
     <use x="135.498047" xlink:href="#DejaVuSans-32"/>
     <use x="199.121094" xlink:href="#DejaVuSans-35"/>
     <use x="262.744141" xlink:href="#DejaVuSans-39"/>
    </g>
   </g>
   <g id="text_55">
    <!-- HP264 -->
    <g transform="translate(113.734709 287.089643)scale(0.1 -0.1)">
     <use xlink:href="#DejaVuSans-48"/>
     <use x="75.195312" xlink:href="#DejaVuSans-50"/>
     <use x="135.498047" xlink:href="#DejaVuSans-32"/>
     <use x="199.121094" xlink:href="#DejaVuSans-36"/>
     <use x="262.744141" xlink:href="#DejaVuSans-34"/>
    </g>
   </g>
   <g id="text_56">
    <!-- HP265 -->
    <g transform="translate(146.169195 153.538107)scale(0.1 -0.1)">
     <use xlink:href="#DejaVuSans-48"/>
     <use x="75.195312" xlink:href="#DejaVuSans-50"/>
     <use x="135.498047" xlink:href="#DejaVuSans-32"/>
     <use x="199.121094" xlink:href="#DejaVuSans-36"/>
     <use x="262.744141" xlink:href="#DejaVuSans-35"/>
    </g>
   </g>
   <g id="text_57">
    <!-- HP268 -->
    <g transform="translate(97.776471 194.681377)scale(0.1 -0.1)">
     <use xlink:href="#DejaVuSans-48"/>
     <use x="75.195312" xlink:href="#DejaVuSans-50"/>
     <use x="135.498047" xlink:href="#DejaVuSans-32"/>
     <use x="199.121094" xlink:href="#DejaVuSans-36"/>
     <use x="262.744141" xlink:href="#DejaVuSans-38"/>
    </g>
   </g>
   <g id="text_58">
    <!-- HP270 -->
    <g transform="translate(121.142639 275.831293)scale(0.1 -0.1)">
     <use xlink:href="#DejaVuSans-48"/>
     <use x="75.195312" xlink:href="#DejaVuSans-50"/>
     <use x="135.498047" xlink:href="#DejaVuSans-32"/>
     <use x="199.121094" xlink:href="#DejaVuSans-37"/>
     <use x="262.744141" xlink:href="#DejaVuSans-30"/>
    </g>
   </g>
   <g id="text_59">
    <!-- HP272 -->
    <g transform="translate(114.332631 244.653772)scale(0.1 -0.1)">
     <use xlink:href="#DejaVuSans-48"/>
     <use x="75.195312" xlink:href="#DejaVuSans-50"/>
     <use x="135.498047" xlink:href="#DejaVuSans-32"/>
     <use x="199.121094" xlink:href="#DejaVuSans-37"/>
     <use x="262.744141" xlink:href="#DejaVuSans-32"/>
    </g>
   </g>
   <g id="text_60">
    <!-- HP273 -->
    <g transform="translate(397.159394 453.553305)scale(0.1 -0.1)">
     <use xlink:href="#DejaVuSans-48"/>
     <use x="75.195312" xlink:href="#DejaVuSans-50"/>
     <use x="135.498047" xlink:href="#DejaVuSans-32"/>
     <use x="199.121094" xlink:href="#DejaVuSans-37"/>
     <use x="262.744141" xlink:href="#DejaVuSans-33"/>
    </g>
   </g>
   <g id="text_61">
    <!-- HP275 -->
    <g transform="translate(123.136353 290.033743)scale(0.1 -0.1)">
     <use xlink:href="#DejaVuSans-48"/>
     <use x="75.195312" xlink:href="#DejaVuSans-50"/>
     <use x="135.498047" xlink:href="#DejaVuSans-32"/>
     <use x="199.121094" xlink:href="#DejaVuSans-37"/>
     <use x="262.744141" xlink:href="#DejaVuSans-35"/>
    </g>
   </g>
   <g id="text_62">
    <!-- HP280 -->
    <g transform="translate(267.093727 175.968118)scale(0.1 -0.1)">
     <use xlink:href="#DejaVuSans-48"/>
     <use x="75.195312" xlink:href="#DejaVuSans-50"/>
     <use x="135.498047" xlink:href="#DejaVuSans-32"/>
     <use x="199.121094" xlink:href="#DejaVuSans-38"/>
     <use x="262.744141" xlink:href="#DejaVuSans-30"/>
    </g>
   </g>
   <g id="text_63">
    <!-- HP281 -->
    <g transform="translate(199.043725 278.052388)scale(0.1 -0.1)">
     <use xlink:href="#DejaVuSans-48"/>
     <use x="75.195312" xlink:href="#DejaVuSans-50"/>
     <use x="135.498047" xlink:href="#DejaVuSans-32"/>
     <use x="199.121094" xlink:href="#DejaVuSans-38"/>
     <use x="262.744141" xlink:href="#DejaVuSans-31"/>
    </g>
   </g>
   <g id="text_64">
    <!-- HP283 -->
    <g transform="translate(108.188859 385.325927)scale(0.1 -0.1)">
     <use xlink:href="#DejaVuSans-48"/>
     <use x="75.195312" xlink:href="#DejaVuSans-50"/>
     <use x="135.498047" xlink:href="#DejaVuSans-32"/>
     <use x="199.121094" xlink:href="#DejaVuSans-38"/>
     <use x="262.744141" xlink:href="#DejaVuSans-33"/>
    </g>
   </g>
   <g id="text_65">
    <!-- HP285 -->
    <g transform="translate(138.448407 388.418844)scale(0.1 -0.1)">
     <use xlink:href="#DejaVuSans-48"/>
     <use x="75.195312" xlink:href="#DejaVuSans-50"/>
     <use x="135.498047" xlink:href="#DejaVuSans-32"/>
     <use x="199.121094" xlink:href="#DejaVuSans-38"/>
     <use x="262.744141" xlink:href="#DejaVuSans-35"/>
    </g>
   </g>
   <g id="text_66">
    <!-- HP286 -->
    <g transform="translate(425.400752 579.750005)scale(0.1 -0.1)">
     <use xlink:href="#DejaVuSans-48"/>
     <use x="75.195312" xlink:href="#DejaVuSans-50"/>
     <use x="135.498047" xlink:href="#DejaVuSans-32"/>
     <use x="199.121094" xlink:href="#DejaVuSans-38"/>
     <use x="262.744141" xlink:href="#DejaVuSans-36"/>
    </g>
   </g>
   <g id="text_67">
    <!-- HP288 -->
    <g transform="translate(153.152276 182.165812)scale(0.1 -0.1)">
     <use xlink:href="#DejaVuSans-48"/>
     <use x="75.195312" xlink:href="#DejaVuSans-50"/>
     <use x="135.498047" xlink:href="#DejaVuSans-32"/>
     <use x="199.121094" xlink:href="#DejaVuSans-38"/>
     <use x="262.744141" xlink:href="#DejaVuSans-38"/>
    </g>
   </g>
   <g id="text_68">
    <!-- HP289 -->
    <g transform="translate(117.281232 280.118394)scale(0.1 -0.1)">
     <use xlink:href="#DejaVuSans-48"/>
     <use x="75.195312" xlink:href="#DejaVuSans-50"/>
     <use x="135.498047" xlink:href="#DejaVuSans-32"/>
     <use x="199.121094" xlink:href="#DejaVuSans-38"/>
     <use x="262.744141" xlink:href="#DejaVuSans-39"/>
    </g>
   </g>
   <g id="text_69">
    <!-- HP291 -->
    <g transform="translate(109.965126 258.855736)scale(0.1 -0.1)">
     <use xlink:href="#DejaVuSans-48"/>
     <use x="75.195312" xlink:href="#DejaVuSans-50"/>
     <use x="135.498047" xlink:href="#DejaVuSans-32"/>
     <use x="199.121094" xlink:href="#DejaVuSans-39"/>
     <use x="262.744141" xlink:href="#DejaVuSans-31"/>
    </g>
   </g>
   <g id="text_70">
    <!-- HP293 -->
    <g transform="translate(270.270353 241.044315)scale(0.1 -0.1)">
     <use xlink:href="#DejaVuSans-48"/>
     <use x="75.195312" xlink:href="#DejaVuSans-50"/>
     <use x="135.498047" xlink:href="#DejaVuSans-32"/>
     <use x="199.121094" xlink:href="#DejaVuSans-39"/>
     <use x="262.744141" xlink:href="#DejaVuSans-33"/>
    </g>
   </g>
   <g id="text_71">
    <!-- HP294 -->
    <g transform="translate(119.921108 310.867675)scale(0.1 -0.1)">
     <use xlink:href="#DejaVuSans-48"/>
     <use x="75.195312" xlink:href="#DejaVuSans-50"/>
     <use x="135.498047" xlink:href="#DejaVuSans-32"/>
     <use x="199.121094" xlink:href="#DejaVuSans-39"/>
     <use x="262.744141" xlink:href="#DejaVuSans-34"/>
    </g>
   </g>
   <g id="text_72">
    <!-- HP295 -->
    <g transform="translate(129.26845 308.468343)scale(0.1 -0.1)">
     <use xlink:href="#DejaVuSans-48"/>
     <use x="75.195312" xlink:href="#DejaVuSans-50"/>
     <use x="135.498047" xlink:href="#DejaVuSans-32"/>
     <use x="199.121094" xlink:href="#DejaVuSans-39"/>
     <use x="262.744141" xlink:href="#DejaVuSans-35"/>
    </g>
   </g>
   <g id="text_73">
    <!-- HP296 -->
    <g transform="translate(125.561669 308.689474)scale(0.1 -0.1)">
     <use xlink:href="#DejaVuSans-48"/>
     <use x="75.195312" xlink:href="#DejaVuSans-50"/>
     <use x="135.498047" xlink:href="#DejaVuSans-32"/>
     <use x="199.121094" xlink:href="#DejaVuSans-39"/>
     <use x="262.744141" xlink:href="#DejaVuSans-36"/>
    </g>
   </g>
   <g id="text_74">
    <!-- HP297 -->
    <g transform="translate(143.304604 140.481381)scale(0.1 -0.1)">
     <use xlink:href="#DejaVuSans-48"/>
     <use x="75.195312" xlink:href="#DejaVuSans-50"/>
     <use x="135.498047" xlink:href="#DejaVuSans-32"/>
     <use x="199.121094" xlink:href="#DejaVuSans-39"/>
     <use x="262.744141" xlink:href="#DejaVuSans-37"/>
    </g>
   </g>
   <g id="text_75">
    <!-- HP299 -->
    <g transform="translate(214.59976 204.955029)scale(0.1 -0.1)">
     <use xlink:href="#DejaVuSans-48"/>
     <use x="75.195312" xlink:href="#DejaVuSans-50"/>
     <use x="135.498047" xlink:href="#DejaVuSans-32"/>
     <use x="199.121094" xlink:href="#DejaVuSans-39"/>
     <use x="262.744141" xlink:href="#DejaVuSans-39"/>
    </g>
   </g>
   <g id="text_76">
    <!-- HP301 -->
    <g transform="translate(123.117818 271.891975)scale(0.1 -0.1)">
     <use xlink:href="#DejaVuSans-48"/>
     <use x="75.195312" xlink:href="#DejaVuSans-50"/>
     <use x="135.498047" xlink:href="#DejaVuSans-33"/>
     <use x="199.121094" xlink:href="#DejaVuSans-30"/>
     <use x="262.744141" xlink:href="#DejaVuSans-31"/>
    </g>
   </g>
   <g id="text_77">
    <!-- HP302 -->
    <g transform="translate(151.774337 208.372641)scale(0.1 -0.1)">
     <use xlink:href="#DejaVuSans-48"/>
     <use x="75.195312" xlink:href="#DejaVuSans-50"/>
     <use x="135.498047" xlink:href="#DejaVuSans-33"/>
     <use x="199.121094" xlink:href="#DejaVuSans-30"/>
     <use x="262.744141" xlink:href="#DejaVuSans-32"/>
    </g>
   </g>
   <g id="text_78">
    <!-- HP306 -->
    <g transform="translate(203.154621 222.733301)scale(0.1 -0.1)">
     <use xlink:href="#DejaVuSans-48"/>
     <use x="75.195312" xlink:href="#DejaVuSans-50"/>
     <use x="135.498047" xlink:href="#DejaVuSans-33"/>
     <use x="199.121094" xlink:href="#DejaVuSans-30"/>
     <use x="262.744141" xlink:href="#DejaVuSans-36"/>
    </g>
   </g>
   <g id="text_79">
    <!-- HP308 -->
    <g transform="translate(122.985397 337.29312)scale(0.1 -0.1)">
     <use xlink:href="#DejaVuSans-48"/>
     <use x="75.195312" xlink:href="#DejaVuSans-50"/>
     <use x="135.498047" xlink:href="#DejaVuSans-33"/>
     <use x="199.121094" xlink:href="#DejaVuSans-30"/>
     <use x="262.744141" xlink:href="#DejaVuSans-38"/>
    </g>
   </g>
   <g id="text_80">
    <!-- HP314 -->
    <g transform="translate(292.567797 175.940246)scale(0.1 -0.1)">
     <use xlink:href="#DejaVuSans-48"/>
     <use x="75.195312" xlink:href="#DejaVuSans-50"/>
     <use x="135.498047" xlink:href="#DejaVuSans-33"/>
     <use x="199.121094" xlink:href="#DejaVuSans-31"/>
     <use x="262.744141" xlink:href="#DejaVuSans-34"/>
    </g>
   </g>
   <g id="text_81">
    <!-- HP316 -->
    <g transform="translate(114.705023 259.271169)scale(0.1 -0.1)">
     <use xlink:href="#DejaVuSans-48"/>
     <use x="75.195312" xlink:href="#DejaVuSans-50"/>
     <use x="135.498047" xlink:href="#DejaVuSans-33"/>
     <use x="199.121094" xlink:href="#DejaVuSans-31"/>
     <use x="262.744141" xlink:href="#DejaVuSans-36"/>
    </g>
   </g>
   <g id="text_82">
    <!-- HP318 -->
    <g transform="translate(139.347355 134.028835)scale(0.1 -0.1)">
     <use xlink:href="#DejaVuSans-48"/>
     <use x="75.195312" xlink:href="#DejaVuSans-50"/>
     <use x="135.498047" xlink:href="#DejaVuSans-33"/>
     <use x="199.121094" xlink:href="#DejaVuSans-31"/>
     <use x="262.744141" xlink:href="#DejaVuSans-38"/>
    </g>
   </g>
   <g id="text_83">
    <!-- HP319 -->
    <g transform="translate(151.087167 182.820998)scale(0.1 -0.1)">
     <use xlink:href="#DejaVuSans-48"/>
     <use x="75.195312" xlink:href="#DejaVuSans-50"/>
     <use x="135.498047" xlink:href="#DejaVuSans-33"/>
     <use x="199.121094" xlink:href="#DejaVuSans-31"/>
     <use x="262.744141" xlink:href="#DejaVuSans-39"/>
    </g>
   </g>
   <g id="text_84">
    <!-- HP323 -->
    <g transform="translate(570.83576 335.463762)scale(0.1 -0.1)">
     <use xlink:href="#DejaVuSans-48"/>
     <use x="75.195312" xlink:href="#DejaVuSans-50"/>
     <use x="135.498047" xlink:href="#DejaVuSans-33"/>
     <use x="199.121094" xlink:href="#DejaVuSans-32"/>
     <use x="262.744141" xlink:href="#DejaVuSans-33"/>
    </g>
   </g>
   <g id="text_85">
    <!-- HP325 -->
    <g transform="translate(401.536119 138.199629)scale(0.1 -0.1)">
     <use xlink:href="#DejaVuSans-48"/>
     <use x="75.195312" xlink:href="#DejaVuSans-50"/>
     <use x="135.498047" xlink:href="#DejaVuSans-33"/>
     <use x="199.121094" xlink:href="#DejaVuSans-32"/>
     <use x="262.744141" xlink:href="#DejaVuSans-35"/>
    </g>
   </g>
   <g id="text_86">
    <!-- HP326 -->
    <g transform="translate(112.168182 262.541341)scale(0.1 -0.1)">
     <use xlink:href="#DejaVuSans-48"/>
     <use x="75.195312" xlink:href="#DejaVuSans-50"/>
     <use x="135.498047" xlink:href="#DejaVuSans-33"/>
     <use x="199.121094" xlink:href="#DejaVuSans-32"/>
     <use x="262.744141" xlink:href="#DejaVuSans-36"/>
    </g>
   </g>
   <g id="text_87">
    <!-- HP327 -->
    <g transform="translate(120.134503 288.681612)scale(0.1 -0.1)">
     <use xlink:href="#DejaVuSans-48"/>
     <use x="75.195312" xlink:href="#DejaVuSans-50"/>
     <use x="135.498047" xlink:href="#DejaVuSans-33"/>
     <use x="199.121094" xlink:href="#DejaVuSans-32"/>
     <use x="262.744141" xlink:href="#DejaVuSans-37"/>
    </g>
   </g>
   <g id="text_88">
    <!-- HP328 -->
    <g transform="translate(118.632256 288.168367)scale(0.1 -0.1)">
     <use xlink:href="#DejaVuSans-48"/>
     <use x="75.195312" xlink:href="#DejaVuSans-50"/>
     <use x="135.498047" xlink:href="#DejaVuSans-33"/>
     <use x="199.121094" xlink:href="#DejaVuSans-32"/>
     <use x="262.744141" xlink:href="#DejaVuSans-38"/>
    </g>
   </g>
   <g id="text_89">
    <!-- HP335 -->
    <g transform="translate(127.16642 354.239017)scale(0.1 -0.1)">
     <use xlink:href="#DejaVuSans-48"/>
     <use x="75.195312" xlink:href="#DejaVuSans-50"/>
     <use x="135.498047" xlink:href="#DejaVuSans-33"/>
     <use x="199.121094" xlink:href="#DejaVuSans-33"/>
     <use x="262.744141" xlink:href="#DejaVuSans-35"/>
    </g>
   </g>
   <g id="text_90">
    <!-- HP338 -->
    <g transform="translate(269.572679 267.308117)scale(0.1 -0.1)">
     <use xlink:href="#DejaVuSans-48"/>
     <use x="75.195312" xlink:href="#DejaVuSans-50"/>
     <use x="135.498047" xlink:href="#DejaVuSans-33"/>
     <use x="199.121094" xlink:href="#DejaVuSans-33"/>
     <use x="262.744141" xlink:href="#DejaVuSans-38"/>
    </g>
   </g>
   <g id="text_91">
    <!-- HP340 -->
    <g transform="translate(122.673486 297.522711)scale(0.1 -0.1)">
     <use xlink:href="#DejaVuSans-48"/>
     <use x="75.195312" xlink:href="#DejaVuSans-50"/>
     <use x="135.498047" xlink:href="#DejaVuSans-33"/>
     <use x="199.121094" xlink:href="#DejaVuSans-34"/>
     <use x="262.744141" xlink:href="#DejaVuSans-30"/>
    </g>
   </g>
   <g id="text_92">
    <!-- HP346 -->
    <g transform="translate(145.630125 169.452691)scale(0.1 -0.1)">
     <use xlink:href="#DejaVuSans-48"/>
     <use x="75.195312" xlink:href="#DejaVuSans-50"/>
     <use x="135.498047" xlink:href="#DejaVuSans-33"/>
     <use x="199.121094" xlink:href="#DejaVuSans-34"/>
     <use x="262.744141" xlink:href="#DejaVuSans-36"/>
    </g>
   </g>
   <g id="text_93">
    <!-- HP347 -->
    <g transform="translate(117.224292 283.837611)scale(0.1 -0.1)">
     <use xlink:href="#DejaVuSans-48"/>
     <use x="75.195312" xlink:href="#DejaVuSans-50"/>
     <use x="135.498047" xlink:href="#DejaVuSans-33"/>
     <use x="199.121094" xlink:href="#DejaVuSans-34"/>
     <use x="262.744141" xlink:href="#DejaVuSans-37"/>
    </g>
   </g>
   <g id="text_94">
    <!-- HP348 -->
    <g transform="translate(465.156764 289.151249)scale(0.1 -0.1)">
     <use xlink:href="#DejaVuSans-48"/>
     <use x="75.195312" xlink:href="#DejaVuSans-50"/>
     <use x="135.498047" xlink:href="#DejaVuSans-33"/>
     <use x="199.121094" xlink:href="#DejaVuSans-34"/>
     <use x="262.744141" xlink:href="#DejaVuSans-38"/>
    </g>
   </g>
   <g id="text_95">
    <!-- HP352 -->
    <g transform="translate(359.84393 103.046138)scale(0.1 -0.1)">
     <use xlink:href="#DejaVuSans-48"/>
     <use x="75.195312" xlink:href="#DejaVuSans-50"/>
     <use x="135.498047" xlink:href="#DejaVuSans-33"/>
     <use x="199.121094" xlink:href="#DejaVuSans-35"/>
     <use x="262.744141" xlink:href="#DejaVuSans-32"/>
    </g>
   </g>
   <g id="text_96">
    <!-- HP354 -->
    <g transform="translate(598.431652 88.561949)scale(0.1 -0.1)">
     <use xlink:href="#DejaVuSans-48"/>
     <use x="75.195312" xlink:href="#DejaVuSans-50"/>
     <use x="135.498047" xlink:href="#DejaVuSans-33"/>
     <use x="199.121094" xlink:href="#DejaVuSans-35"/>
     <use x="262.744141" xlink:href="#DejaVuSans-34"/>
    </g>
   </g>
   <g id="text_97">
    <!-- between sample distances clade D braycurtis no_sqrt -->
    <defs>
     <path d="M 48.6875 27.296875 
Q 48.6875 37.203125 44.609375 42.84375 
Q 40.53125 48.484375 33.40625 48.484375 
Q 26.265625 48.484375 22.1875 42.84375 
Q 18.109375 37.203125 18.109375 27.296875 
Q 18.109375 17.390625 22.1875 11.75 
Q 26.265625 6.109375 33.40625 6.109375 
Q 40.53125 6.109375 44.609375 11.75 
Q 48.6875 17.390625 48.6875 27.296875 
z
M 18.109375 46.390625 
Q 20.953125 51.265625 25.265625 53.625 
Q 29.59375 56 35.59375 56 
Q 45.5625 56 51.78125 48.09375 
Q 58.015625 40.1875 58.015625 27.296875 
Q 58.015625 14.40625 51.78125 6.484375 
Q 45.5625 -1.421875 35.59375 -1.421875 
Q 29.59375 -1.421875 25.265625 0.953125 
Q 20.953125 3.328125 18.109375 8.203125 
L 18.109375 0 
L 9.078125 0 
L 9.078125 75.984375 
L 18.109375 75.984375 
z
" id="DejaVuSans-62"/>
     <path d="M 56.203125 29.59375 
L 56.203125 25.203125 
L 14.890625 25.203125 
Q 15.484375 15.921875 20.484375 11.0625 
Q 25.484375 6.203125 34.421875 6.203125 
Q 39.59375 6.203125 44.453125 7.46875 
Q 49.3125 8.734375 54.109375 11.28125 
L 54.109375 2.78125 
Q 49.265625 0.734375 44.1875 -0.34375 
Q 39.109375 -1.421875 33.890625 -1.421875 
Q 20.796875 -1.421875 13.15625 6.1875 
Q 5.515625 13.8125 5.515625 26.8125 
Q 5.515625 40.234375 12.765625 48.109375 
Q 20.015625 56 32.328125 56 
Q 43.359375 56 49.78125 48.890625 
Q 56.203125 41.796875 56.203125 29.59375 
z
M 47.21875 32.234375 
Q 47.125 39.59375 43.09375 43.984375 
Q 39.0625 48.390625 32.421875 48.390625 
Q 24.90625 48.390625 20.390625 44.140625 
Q 15.875 39.890625 15.1875 32.171875 
z
" id="DejaVuSans-65"/>
     <path d="M 18.3125 70.21875 
L 18.3125 54.6875 
L 36.8125 54.6875 
L 36.8125 47.703125 
L 18.3125 47.703125 
L 18.3125 18.015625 
Q 18.3125 11.328125 20.140625 9.421875 
Q 21.96875 7.515625 27.59375 7.515625 
L 36.8125 7.515625 
L 36.8125 0 
L 27.59375 0 
Q 17.1875 0 13.234375 3.875 
Q 9.28125 7.765625 9.28125 18.015625 
L 9.28125 47.703125 
L 2.6875 47.703125 
L 2.6875 54.6875 
L 9.28125 54.6875 
L 9.28125 70.21875 
z
" id="DejaVuSans-74"/>
     <path d="M 4.203125 54.6875 
L 13.1875 54.6875 
L 24.421875 12.015625 
L 35.59375 54.6875 
L 46.1875 54.6875 
L 57.421875 12.015625 
L 68.609375 54.6875 
L 77.59375 54.6875 
L 63.28125 0 
L 52.6875 0 
L 40.921875 44.828125 
L 29.109375 0 
L 18.5 0 
z
" id="DejaVuSans-77"/>
     <path d="M 54.890625 33.015625 
L 54.890625 0 
L 45.90625 0 
L 45.90625 32.71875 
Q 45.90625 40.484375 42.875 44.328125 
Q 39.84375 48.1875 33.796875 48.1875 
Q 26.515625 48.1875 22.3125 43.546875 
Q 18.109375 38.921875 18.109375 30.90625 
L 18.109375 0 
L 9.078125 0 
L 9.078125 54.6875 
L 18.109375 54.6875 
L 18.109375 46.1875 
Q 21.34375 51.125 25.703125 53.5625 
Q 30.078125 56 35.796875 56 
Q 45.21875 56 50.046875 50.171875 
Q 54.890625 44.34375 54.890625 33.015625 
z
" id="DejaVuSans-6e"/>
     <path id="DejaVuSans-20"/>
     <path d="M 44.28125 53.078125 
L 44.28125 44.578125 
Q 40.484375 46.53125 36.375 47.5 
Q 32.28125 48.484375 27.875 48.484375 
Q 21.1875 48.484375 17.84375 46.4375 
Q 14.5 44.390625 14.5 40.28125 
Q 14.5 37.15625 16.890625 35.375 
Q 19.28125 33.59375 26.515625 31.984375 
L 29.59375 31.296875 
Q 39.15625 29.25 43.1875 25.515625 
Q 47.21875 21.78125 47.21875 15.09375 
Q 47.21875 7.46875 41.1875 3.015625 
Q 35.15625 -1.421875 24.609375 -1.421875 
Q 20.21875 -1.421875 15.453125 -0.5625 
Q 10.6875 0.296875 5.421875 2 
L 5.421875 11.28125 
Q 10.40625 8.6875 15.234375 7.390625 
Q 20.0625 6.109375 24.8125 6.109375 
Q 31.15625 6.109375 34.5625 8.28125 
Q 37.984375 10.453125 37.984375 14.40625 
Q 37.984375 18.0625 35.515625 20.015625 
Q 33.0625 21.96875 24.703125 23.78125 
L 21.578125 24.515625 
Q 13.234375 26.265625 9.515625 29.90625 
Q 5.8125 33.546875 5.8125 39.890625 
Q 5.8125 47.609375 11.28125 51.796875 
Q 16.75 56 26.8125 56 
Q 31.78125 56 36.171875 55.265625 
Q 40.578125 54.546875 44.28125 53.078125 
z
" id="DejaVuSans-73"/>
     <path d="M 34.28125 27.484375 
Q 23.390625 27.484375 19.1875 25 
Q 14.984375 22.515625 14.984375 16.5 
Q 14.984375 11.71875 18.140625 8.90625 
Q 21.296875 6.109375 26.703125 6.109375 
Q 34.1875 6.109375 38.703125 11.40625 
Q 43.21875 16.703125 43.21875 25.484375 
L 43.21875 27.484375 
z
M 52.203125 31.203125 
L 52.203125 0 
L 43.21875 0 
L 43.21875 8.296875 
Q 40.140625 3.328125 35.546875 0.953125 
Q 30.953125 -1.421875 24.3125 -1.421875 
Q 15.921875 -1.421875 10.953125 3.296875 
Q 6 8.015625 6 15.921875 
Q 6 25.140625 12.171875 29.828125 
Q 18.359375 34.515625 30.609375 34.515625 
L 43.21875 34.515625 
L 43.21875 35.40625 
Q 43.21875 41.609375 39.140625 45 
Q 35.0625 48.390625 27.6875 48.390625 
Q 23 48.390625 18.546875 47.265625 
Q 14.109375 46.140625 10.015625 43.890625 
L 10.015625 52.203125 
Q 14.9375 54.109375 19.578125 55.046875 
Q 24.21875 56 28.609375 56 
Q 40.484375 56 46.34375 49.84375 
Q 52.203125 43.703125 52.203125 31.203125 
z
" id="DejaVuSans-61"/>
     <path d="M 52 44.1875 
Q 55.375 50.25 60.0625 53.125 
Q 64.75 56 71.09375 56 
Q 79.640625 56 84.28125 50.015625 
Q 88.921875 44.046875 88.921875 33.015625 
L 88.921875 0 
L 79.890625 0 
L 79.890625 32.71875 
Q 79.890625 40.578125 77.09375 44.375 
Q 74.3125 48.1875 68.609375 48.1875 
Q 61.625 48.1875 57.5625 43.546875 
Q 53.515625 38.921875 53.515625 30.90625 
L 53.515625 0 
L 44.484375 0 
L 44.484375 32.71875 
Q 44.484375 40.625 41.703125 44.40625 
Q 38.921875 48.1875 33.109375 48.1875 
Q 26.21875 48.1875 22.15625 43.53125 
Q 18.109375 38.875 18.109375 30.90625 
L 18.109375 0 
L 9.078125 0 
L 9.078125 54.6875 
L 18.109375 54.6875 
L 18.109375 46.1875 
Q 21.1875 51.21875 25.484375 53.609375 
Q 29.78125 56 35.6875 56 
Q 41.65625 56 45.828125 52.96875 
Q 50 49.953125 52 44.1875 
z
" id="DejaVuSans-6d"/>
     <path d="M 18.109375 8.203125 
L 18.109375 -20.796875 
L 9.078125 -20.796875 
L 9.078125 54.6875 
L 18.109375 54.6875 
L 18.109375 46.390625 
Q 20.953125 51.265625 25.265625 53.625 
Q 29.59375 56 35.59375 56 
Q 45.5625 56 51.78125 48.09375 
Q 58.015625 40.1875 58.015625 27.296875 
Q 58.015625 14.40625 51.78125 6.484375 
Q 45.5625 -1.421875 35.59375 -1.421875 
Q 29.59375 -1.421875 25.265625 0.953125 
Q 20.953125 3.328125 18.109375 8.203125 
z
M 48.6875 27.296875 
Q 48.6875 37.203125 44.609375 42.84375 
Q 40.53125 48.484375 33.40625 48.484375 
Q 26.265625 48.484375 22.1875 42.84375 
Q 18.109375 37.203125 18.109375 27.296875 
Q 18.109375 17.390625 22.1875 11.75 
Q 26.265625 6.109375 33.40625 6.109375 
Q 40.53125 6.109375 44.609375 11.75 
Q 48.6875 17.390625 48.6875 27.296875 
z
" id="DejaVuSans-70"/>
     <path d="M 9.421875 75.984375 
L 18.40625 75.984375 
L 18.40625 0 
L 9.421875 0 
z
" id="DejaVuSans-6c"/>
     <path d="M 45.40625 46.390625 
L 45.40625 75.984375 
L 54.390625 75.984375 
L 54.390625 0 
L 45.40625 0 
L 45.40625 8.203125 
Q 42.578125 3.328125 38.25 0.953125 
Q 33.9375 -1.421875 27.875 -1.421875 
Q 17.96875 -1.421875 11.734375 6.484375 
Q 5.515625 14.40625 5.515625 27.296875 
Q 5.515625 40.1875 11.734375 48.09375 
Q 17.96875 56 27.875 56 
Q 33.9375 56 38.25 53.625 
Q 42.578125 51.265625 45.40625 46.390625 
z
M 14.796875 27.296875 
Q 14.796875 17.390625 18.875 11.75 
Q 22.953125 6.109375 30.078125 6.109375 
Q 37.203125 6.109375 41.296875 11.75 
Q 45.40625 17.390625 45.40625 27.296875 
Q 45.40625 37.203125 41.296875 42.84375 
Q 37.203125 48.484375 30.078125 48.484375 
Q 22.953125 48.484375 18.875 42.84375 
Q 14.796875 37.203125 14.796875 27.296875 
z
" id="DejaVuSans-64"/>
     <path d="M 9.421875 54.6875 
L 18.40625 54.6875 
L 18.40625 0 
L 9.421875 0 
z
M 9.421875 75.984375 
L 18.40625 75.984375 
L 18.40625 64.59375 
L 9.421875 64.59375 
z
" id="DejaVuSans-69"/>
     <path d="M 48.78125 52.59375 
L 48.78125 44.1875 
Q 44.96875 46.296875 41.140625 47.34375 
Q 37.3125 48.390625 33.40625 48.390625 
Q 24.65625 48.390625 19.8125 42.84375 
Q 14.984375 37.3125 14.984375 27.296875 
Q 14.984375 17.28125 19.8125 11.734375 
Q 24.65625 6.203125 33.40625 6.203125 
Q 37.3125 6.203125 41.140625 7.25 
Q 44.96875 8.296875 48.78125 10.40625 
L 48.78125 2.09375 
Q 45.015625 0.34375 40.984375 -0.53125 
Q 36.96875 -1.421875 32.421875 -1.421875 
Q 20.0625 -1.421875 12.78125 6.34375 
Q 5.515625 14.109375 5.515625 27.296875 
Q 5.515625 40.671875 12.859375 48.328125 
Q 20.21875 56 33.015625 56 
Q 37.15625 56 41.109375 55.140625 
Q 45.0625 54.296875 48.78125 52.59375 
z
" id="DejaVuSans-63"/>
     <path d="M 19.671875 64.796875 
L 19.671875 8.109375 
L 31.59375 8.109375 
Q 46.6875 8.109375 53.6875 14.9375 
Q 60.6875 21.78125 60.6875 36.53125 
Q 60.6875 51.171875 53.6875 57.984375 
Q 46.6875 64.796875 31.59375 64.796875 
z
M 9.8125 72.90625 
L 30.078125 72.90625 
Q 51.265625 72.90625 61.171875 64.09375 
Q 71.09375 55.28125 71.09375 36.53125 
Q 71.09375 17.671875 61.125 8.828125 
Q 51.171875 0 30.078125 0 
L 9.8125 0 
z
" id="DejaVuSans-44"/>
     <path d="M 41.109375 46.296875 
Q 39.59375 47.171875 37.8125 47.578125 
Q 36.03125 48 33.890625 48 
Q 26.265625 48 22.1875 43.046875 
Q 18.109375 38.09375 18.109375 28.8125 
L 18.109375 0 
L 9.078125 0 
L 9.078125 54.6875 
L 18.109375 54.6875 
L 18.109375 46.1875 
Q 20.953125 51.171875 25.484375 53.578125 
Q 30.03125 56 36.53125 56 
Q 37.453125 56 38.578125 55.875 
Q 39.703125 55.765625 41.0625 55.515625 
z
" id="DejaVuSans-72"/>
     <path d="M 32.171875 -5.078125 
Q 28.375 -14.84375 24.75 -17.8125 
Q 21.140625 -20.796875 15.09375 -20.796875 
L 7.90625 -20.796875 
L 7.90625 -13.28125 
L 13.1875 -13.28125 
Q 16.890625 -13.28125 18.9375 -11.515625 
Q 21 -9.765625 23.484375 -3.21875 
L 25.09375 0.875 
L 2.984375 54.6875 
L 12.5 54.6875 
L 29.59375 11.921875 
L 46.6875 54.6875 
L 56.203125 54.6875 
z
" id="DejaVuSans-79"/>
     <path d="M 8.5 21.578125 
L 8.5 54.6875 
L 17.484375 54.6875 
L 17.484375 21.921875 
Q 17.484375 14.15625 20.5 10.265625 
Q 23.53125 6.390625 29.59375 6.390625 
Q 36.859375 6.390625 41.078125 11.03125 
Q 45.3125 15.671875 45.3125 23.6875 
L 45.3125 54.6875 
L 54.296875 54.6875 
L 54.296875 0 
L 45.3125 0 
L 45.3125 8.40625 
Q 42.046875 3.421875 37.71875 1 
Q 33.40625 -1.421875 27.6875 -1.421875 
Q 18.265625 -1.421875 13.375 4.4375 
Q 8.5 10.296875 8.5 21.578125 
z
M 31.109375 56 
z
" id="DejaVuSans-75"/>
     <path d="M 30.609375 48.390625 
Q 23.390625 48.390625 19.1875 42.75 
Q 14.984375 37.109375 14.984375 27.296875 
Q 14.984375 17.484375 19.15625 11.84375 
Q 23.34375 6.203125 30.609375 6.203125 
Q 37.796875 6.203125 41.984375 11.859375 
Q 46.1875 17.53125 46.1875 27.296875 
Q 46.1875 37.015625 41.984375 42.703125 
Q 37.796875 48.390625 30.609375 48.390625 
z
M 30.609375 56 
Q 42.328125 56 49.015625 48.375 
Q 55.71875 40.765625 55.71875 27.296875 
Q 55.71875 13.875 49.015625 6.21875 
Q 42.328125 -1.421875 30.609375 -1.421875 
Q 18.84375 -1.421875 12.171875 6.21875 
Q 5.515625 13.875 5.515625 27.296875 
Q 5.515625 40.765625 12.171875 48.375 
Q 18.84375 56 30.609375 56 
z
" id="DejaVuSans-6f"/>
     <path d="M 50.984375 -16.609375 
L 50.984375 -23.578125 
L -0.984375 -23.578125 
L -0.984375 -16.609375 
z
" id="DejaVuSans-5f"/>
     <path d="M 14.796875 27.296875 
Q 14.796875 17.390625 18.875 11.75 
Q 22.953125 6.109375 30.078125 6.109375 
Q 37.203125 6.109375 41.296875 11.75 
Q 45.40625 17.390625 45.40625 27.296875 
Q 45.40625 37.203125 41.296875 42.84375 
Q 37.203125 48.484375 30.078125 48.484375 
Q 22.953125 48.484375 18.875 42.84375 
Q 14.796875 37.203125 14.796875 27.296875 
z
M 45.40625 8.203125 
Q 42.578125 3.328125 38.25 0.953125 
Q 33.9375 -1.421875 27.875 -1.421875 
Q 17.96875 -1.421875 11.734375 6.484375 
Q 5.515625 14.40625 5.515625 27.296875 
Q 5.515625 40.1875 11.734375 48.09375 
Q 17.96875 56 27.875 56 
Q 33.9375 56 38.25 53.625 
Q 42.578125 51.265625 45.40625 46.390625 
L 45.40625 54.6875 
L 54.390625 54.6875 
L 54.390625 -20.796875 
L 45.40625 -20.796875 
z
" id="DejaVuSans-71"/>
    </defs>
    <g transform="translate(183.685625 20.88)scale(0.12 -0.12)">
     <use xlink:href="#DejaVuSans-62"/>
     <use x="63.476562" xlink:href="#DejaVuSans-65"/>
     <use x="125" xlink:href="#DejaVuSans-74"/>
     <use x="164.208984" xlink:href="#DejaVuSans-77"/>
     <use x="245.996094" xlink:href="#DejaVuSans-65"/>
     <use x="307.519531" xlink:href="#DejaVuSans-65"/>
     <use x="369.042969" xlink:href="#DejaVuSans-6e"/>
     <use x="432.421875" xlink:href="#DejaVuSans-20"/>
     <use x="464.208984" xlink:href="#DejaVuSans-73"/>
     <use x="516.308594" xlink:href="#DejaVuSans-61"/>
     <use x="577.587891" xlink:href="#DejaVuSans-6d"/>
     <use x="675" xlink:href="#DejaVuSans-70"/>
     <use x="738.476562" xlink:href="#DejaVuSans-6c"/>
     <use x="766.259766" xlink:href="#DejaVuSans-65"/>
     <use x="827.783203" xlink:href="#DejaVuSans-20"/>
     <use x="859.570312" xlink:href="#DejaVuSans-64"/>
     <use x="923.046875" xlink:href="#DejaVuSans-69"/>
     <use x="950.830078" xlink:href="#DejaVuSans-73"/>
     <use x="1002.929688" xlink:href="#DejaVuSans-74"/>
     <use x="1042.138672" xlink:href="#DejaVuSans-61"/>
     <use x="1103.417969" xlink:href="#DejaVuSans-6e"/>
     <use x="1166.796875" xlink:href="#DejaVuSans-63"/>
     <use x="1221.777344" xlink:href="#DejaVuSans-65"/>
     <use x="1283.300781" xlink:href="#DejaVuSans-73"/>
     <use x="1335.400391" xlink:href="#DejaVuSans-20"/>
     <use x="1367.1875" xlink:href="#DejaVuSans-63"/>
     <use x="1422.167969" xlink:href="#DejaVuSans-6c"/>
     <use x="1449.951172" xlink:href="#DejaVuSans-61"/>
     <use x="1511.230469" xlink:href="#DejaVuSans-64"/>
     <use x="1574.707031" xlink:href="#DejaVuSans-65"/>
     <use x="1636.230469" xlink:href="#DejaVuSans-20"/>
     <use x="1668.017578" xlink:href="#DejaVuSans-44"/>
     <use x="1745.019531" xlink:href="#DejaVuSans-20"/>
     <use x="1776.806641" xlink:href="#DejaVuSans-62"/>
     <use x="1840.283203" xlink:href="#DejaVuSans-72"/>
     <use x="1881.396484" xlink:href="#DejaVuSans-61"/>
     <use x="1942.675781" xlink:href="#DejaVuSans-79"/>
     <use x="2001.855469" xlink:href="#DejaVuSans-63"/>
     <use x="2056.835938" xlink:href="#DejaVuSans-75"/>
     <use x="2120.214844" xlink:href="#DejaVuSans-72"/>
     <use x="2161.328125" xlink:href="#DejaVuSans-74"/>
     <use x="2200.537109" xlink:href="#DejaVuSans-69"/>
     <use x="2228.320312" xlink:href="#DejaVuSans-73"/>
     <use x="2280.419922" xlink:href="#DejaVuSans-20"/>
     <use x="2312.207031" xlink:href="#DejaVuSans-6e"/>
     <use x="2375.585938" xlink:href="#DejaVuSans-6f"/>
     <use x="2436.767578" xlink:href="#DejaVuSans-5f"/>
     <use x="2486.767578" xlink:href="#DejaVuSans-73"/>
     <use x="2538.867188" xlink:href="#DejaVuSans-71"/>
     <use x="2602.34375" xlink:href="#DejaVuSans-72"/>
     <use x="2643.457031" xlink:href="#DejaVuSans-74"/>
    </g>
   </g>
  </g>
 </g>
 <defs>
  <clipPath id="p1466119888">
   <rect height="593.24" width="580.07" x="54.61" y="26.88"/>
  </clipPath>
 </defs>
</svg>
