<?xml version="1.0" encoding="utf-8" standalone="no"?>
<!DOCTYPE svg PUBLIC "-//W3C//DTD SVG 1.1//EN"
  "http://www.w3.org/Graphics/SVG/1.1/DTD/svg11.dtd">
<!-- Created with matplotlib (https://matplotlib.org/) -->
<svg height="648pt" version="1.1" viewBox="0 0 648 648" width="648pt" xmlns="http://www.w3.org/2000/svg" xmlns:xlink="http://www.w3.org/1999/xlink">
 <metadata>
  <rdf:RDF xmlns:cc="http://creativecommons.org/ns#" xmlns:dc="http://purl.org/dc/elements/1.1/" xmlns:rdf="http://www.w3.org/1999/02/22-rdf-syntax-ns#">
   <cc:Work>
    <dc:type rdf:resource="http://purl.org/dc/dcmitype/StillImage"/>
    <dc:date>2022-07-06T08:52:49.790128</dc:date>
    <dc:format>image/svg+xml</dc:format>
    <dc:creator>
     <cc:Agent>
      <dc:title>Matplotlib v3.3.3, https://matplotlib.org/</dc:title>
     </cc:Agent>
    </dc:creator>
   </cc:Work>
  </rdf:RDF>
 </metadata>
 <defs>
  <style type="text/css">*{stroke-linecap:butt;stroke-linejoin:round;}</style>
 </defs>
 <g id="figure_1">
  <g id="patch_1">
   <path d="M 0 648 
L 648 648 
L 648 0 
L 0 0 
z
" style="fill:#ffffff;"/>
  </g>
  <g id="axes_1">
   <g id="patch_2">
    <path d="M 48.31 620.12 
L 627.627273 620.12 
L 627.627273 26.88 
L 48.31 26.88 
z
" style="fill:#ffffff;"/>
   </g>
   <g id="PathCollection_1">
    <defs>
     <path d="M 0 3 
C 0.795609 3 1.55874 2.683901 2.12132 2.12132 
C 2.683901 1.55874 3 0.795609 3 0 
C 3 -0.795609 2.683901 -1.55874 2.12132 -2.12132 
C 1.55874 -2.683901 0.795609 -3 0 -3 
C -0.795609 -3 -1.55874 -2.683901 -2.12132 -2.12132 
C -2.683901 -1.55874 -3 -0.795609 -3 0 
C -3 0.795609 -2.683901 1.55874 -2.12132 2.12132 
C -1.55874 2.683901 -0.795609 3 0 3 
z
" id="mc8283e0bf6" style="stroke:#000000;"/>
    </defs>
    <g clip-path="url(#p200e569442)">
     <use style="stroke:#000000;" x="98.9454" xlink:href="#mc8283e0bf6" y="392.254763"/>
     <use style="stroke:#000000;" x="105.049829" xlink:href="#mc8283e0bf6" y="392.164394"/>
     <use style="stroke:#000000;" x="86.289018" xlink:href="#mc8283e0bf6" y="354.191661"/>
     <use style="stroke:#000000;" x="90.974456" xlink:href="#mc8283e0bf6" y="362.153646"/>
     <use style="stroke:#000000;" x="84.65956" xlink:href="#mc8283e0bf6" y="361.538488"/>
     <use style="stroke:#000000;" x="85.639175" xlink:href="#mc8283e0bf6" y="353.269128"/>
     <use style="stroke:#000000;" x="83.866076" xlink:href="#mc8283e0bf6" y="349.086782"/>
     <use style="stroke:#000000;" x="80.776152" xlink:href="#mc8283e0bf6" y="359.513864"/>
     <use style="stroke:#000000;" x="85.023633" xlink:href="#mc8283e0bf6" y="359.298906"/>
     <use style="stroke:#000000;" x="103.537114" xlink:href="#mc8283e0bf6" y="399.351019"/>
     <use style="stroke:#000000;" x="86.177226" xlink:href="#mc8283e0bf6" y="355.848759"/>
     <use style="stroke:#000000;" x="89.48693" xlink:href="#mc8283e0bf6" y="349.137002"/>
     <use style="stroke:#000000;" x="519.724265" xlink:href="#mc8283e0bf6" y="593.154545"/>
     <use style="stroke:#000000;" x="479.790864" xlink:href="#mc8283e0bf6" y="427.56546"/>
     <use style="stroke:#000000;" x="601.294669" xlink:href="#mc8283e0bf6" y="249.810919"/>
     <use style="stroke:#000000;" x="95.42762" xlink:href="#mc8283e0bf6" y="341.376813"/>
     <use style="stroke:#000000;" x="89.40476" xlink:href="#mc8283e0bf6" y="413.843032"/>
     <use style="stroke:#000000;" x="106.132382" xlink:href="#mc8283e0bf6" y="395.155946"/>
     <use style="stroke:#000000;" x="392.099038" xlink:href="#mc8283e0bf6" y="127.266668"/>
     <use style="stroke:#000000;" x="98.801822" xlink:href="#mc8283e0bf6" y="391.272297"/>
     <use style="stroke:#000000;" x="92.911132" xlink:href="#mc8283e0bf6" y="362.043679"/>
     <use style="stroke:#000000;" x="359.042125" xlink:href="#mc8283e0bf6" y="214.109108"/>
     <use style="stroke:#000000;" x="98.005936" xlink:href="#mc8283e0bf6" y="170.031204"/>
     <use style="stroke:#000000;" x="501.997054" xlink:href="#mc8283e0bf6" y="155.308309"/>
     <use style="stroke:#000000;" x="77.486815" xlink:href="#mc8283e0bf6" y="343.684155"/>
     <use style="stroke:#000000;" x="86.184968" xlink:href="#mc8283e0bf6" y="357.902855"/>
     <use style="stroke:#000000;" x="83.175508" xlink:href="#mc8283e0bf6" y="348.419902"/>
     <use style="stroke:#000000;" x="437.004127" xlink:href="#mc8283e0bf6" y="437.804416"/>
     <use style="stroke:#000000;" x="568.250431" xlink:href="#mc8283e0bf6" y="545.23309"/>
     <use style="stroke:#000000;" x="93.12587" xlink:href="#mc8283e0bf6" y="320.61433"/>
     <use style="stroke:#000000;" x="80.334479" xlink:href="#mc8283e0bf6" y="350.108152"/>
     <use style="stroke:#000000;" x="92.40257" xlink:href="#mc8283e0bf6" y="91.318002"/>
     <use style="stroke:#000000;" x="385.940123" xlink:href="#mc8283e0bf6" y="451.719804"/>
     <use style="stroke:#000000;" x="88.000051" xlink:href="#mc8283e0bf6" y="165.609867"/>
     <use style="stroke:#000000;" x="485.861011" xlink:href="#mc8283e0bf6" y="232.656974"/>
     <use style="stroke:#000000;" x="80.500976" xlink:href="#mc8283e0bf6" y="184.551865"/>
     <use style="stroke:#000000;" x="74.642603" xlink:href="#mc8283e0bf6" y="362.596702"/>
     <use style="stroke:#000000;" x="85.68513" xlink:href="#mc8283e0bf6" y="356.341358"/>
     <use style="stroke:#000000;" x="82.410235" xlink:href="#mc8283e0bf6" y="357.766839"/>
     <use style="stroke:#000000;" x="80.757016" xlink:href="#mc8283e0bf6" y="353.840944"/>
     <use style="stroke:#000000;" x="91.963809" xlink:href="#mc8283e0bf6" y="87.87133"/>
     <use style="stroke:#000000;" x="83.410641" xlink:href="#mc8283e0bf6" y="356.258709"/>
     <use style="stroke:#000000;" x="89.26578" xlink:href="#mc8283e0bf6" y="328.510356"/>
     <use style="stroke:#000000;" x="80.714358" xlink:href="#mc8283e0bf6" y="336.917996"/>
     <use style="stroke:#000000;" x="78.567965" xlink:href="#mc8283e0bf6" y="359.591862"/>
     <use style="stroke:#000000;" x="78.495706" xlink:href="#mc8283e0bf6" y="355.85825"/>
     <use style="stroke:#000000;" x="81.039382" xlink:href="#mc8283e0bf6" y="360.792663"/>
     <use style="stroke:#000000;" x="252.487096" xlink:href="#mc8283e0bf6" y="134.507914"/>
     <use style="stroke:#000000;" x="164.968972" xlink:href="#mc8283e0bf6" y="185.195127"/>
     <use style="stroke:#000000;" x="88.760798" xlink:href="#mc8283e0bf6" y="410.946145"/>
     <use style="stroke:#000000;" x="98.261397" xlink:href="#mc8283e0bf6" y="329.504981"/>
     <use style="stroke:#000000;" x="84.91308" xlink:href="#mc8283e0bf6" y="356.789254"/>
     <use style="stroke:#000000;" x="82.680856" xlink:href="#mc8283e0bf6" y="342.598976"/>
     <use style="stroke:#000000;" x="250.621118" xlink:href="#mc8283e0bf6" y="155.934007"/>
     <use style="stroke:#000000;" x="94.399804" xlink:href="#mc8283e0bf6" y="389.834525"/>
     <use style="stroke:#000000;" x="80.282887" xlink:href="#mc8283e0bf6" y="352.564412"/>
     <use style="stroke:#000000;" x="83.577701" xlink:href="#mc8283e0bf6" y="366.428231"/>
     <use style="stroke:#000000;" x="84.199288" xlink:href="#mc8283e0bf6" y="336.13155"/>
     <use style="stroke:#000000;" x="173.888988" xlink:href="#mc8283e0bf6" y="110.151333"/>
     <use style="stroke:#000000;" x="79.45388" xlink:href="#mc8283e0bf6" y="348.437702"/>
     <use style="stroke:#000000;" x="96.240563" xlink:href="#mc8283e0bf6" y="342.999177"/>
     <use style="stroke:#000000;" x="88.863993" xlink:href="#mc8283e0bf6" y="53.845455"/>
     <use style="stroke:#000000;" x="97.032745" xlink:href="#mc8283e0bf6" y="390.839929"/>
     <use style="stroke:#000000;" x="338.823017" xlink:href="#mc8283e0bf6" y="193.861951"/>
     <use style="stroke:#000000;" x="81.414391" xlink:href="#mc8283e0bf6" y="354.785653"/>
     <use style="stroke:#000000;" x="91.800408" xlink:href="#mc8283e0bf6" y="337.017308"/>
     <use style="stroke:#000000;" x="86.724785" xlink:href="#mc8283e0bf6" y="186.738169"/>
     <use style="stroke:#000000;" x="577.75511" xlink:href="#mc8283e0bf6" y="421.201842"/>
     <use style="stroke:#000000;" x="530.228374" xlink:href="#mc8283e0bf6" y="504.337947"/>
     <use style="stroke:#000000;" x="76.263204" xlink:href="#mc8283e0bf6" y="376.19681"/>
     <use style="stroke:#000000;" x="88.485123" xlink:href="#mc8283e0bf6" y="351.305689"/>
     <use style="stroke:#000000;" x="83.451276" xlink:href="#mc8283e0bf6" y="355.566223"/>
     <use style="stroke:#000000;" x="90.936029" xlink:href="#mc8283e0bf6" y="360.417691"/>
     <use style="stroke:#000000;" x="269.880148" xlink:href="#mc8283e0bf6" y="143.795889"/>
     <use style="stroke:#000000;" x="95.804548" xlink:href="#mc8283e0bf6" y="383.078809"/>
     <use style="stroke:#000000;" x="93.960459" xlink:href="#mc8283e0bf6" y="343.396713"/>
     <use style="stroke:#000000;" x="83.726855" xlink:href="#mc8283e0bf6" y="358.326239"/>
     <use style="stroke:#000000;" x="538.204777" xlink:href="#mc8283e0bf6" y="272.909994"/>
     <use style="stroke:#000000;" x="472.814478" xlink:href="#mc8283e0bf6" y="156.468358"/>
     <use style="stroke:#000000;" x="468.899835" xlink:href="#mc8283e0bf6" y="211.937074"/>
     <use style="stroke:#000000;" x="485.335125" xlink:href="#mc8283e0bf6" y="475.989973"/>
     <use style="stroke:#000000;" x="342.380787" xlink:href="#mc8283e0bf6" y="158.071397"/>
     <use style="stroke:#000000;" x="165.214233" xlink:href="#mc8283e0bf6" y="357.493976"/>
    </g>
   </g>
   <g id="matplotlib.axis_1">
    <g id="xtick_1">
     <g id="line2d_1">
      <defs>
       <path d="M 0 0 
L 0 3.5 
" id="m3c2b03d7ba" style="stroke:#000000;stroke-width:0.8;"/>
      </defs>
      <g>
       <use style="stroke:#000000;stroke-width:0.8;" x="57.700171" xlink:href="#m3c2b03d7ba" y="620.12"/>
      </g>
     </g>
     <g id="text_1">
      <!-- −0.2 -->
      <g transform="translate(45.558765 634.718438)scale(0.1 -0.1)">
       <defs>
        <path d="M 10.59375 35.5 
L 73.1875 35.5 
L 73.1875 27.203125 
L 10.59375 27.203125 
z
" id="DejaVuSans-8722"/>
        <path d="M 31.78125 66.40625 
Q 24.171875 66.40625 20.328125 58.90625 
Q 16.5 51.421875 16.5 36.375 
Q 16.5 21.390625 20.328125 13.890625 
Q 24.171875 6.390625 31.78125 6.390625 
Q 39.453125 6.390625 43.28125 13.890625 
Q 47.125 21.390625 47.125 36.375 
Q 47.125 51.421875 43.28125 58.90625 
Q 39.453125 66.40625 31.78125 66.40625 
z
M 31.78125 74.21875 
Q 44.046875 74.21875 50.515625 64.515625 
Q 56.984375 54.828125 56.984375 36.375 
Q 56.984375 17.96875 50.515625 8.265625 
Q 44.046875 -1.421875 31.78125 -1.421875 
Q 19.53125 -1.421875 13.0625 8.265625 
Q 6.59375 17.96875 6.59375 36.375 
Q 6.59375 54.828125 13.0625 64.515625 
Q 19.53125 74.21875 31.78125 74.21875 
z
" id="DejaVuSans-48"/>
        <path d="M 10.6875 12.40625 
L 21 12.40625 
L 21 0 
L 10.6875 0 
z
" id="DejaVuSans-46"/>
        <path d="M 19.1875 8.296875 
L 53.609375 8.296875 
L 53.609375 0 
L 7.328125 0 
L 7.328125 8.296875 
Q 12.9375 14.109375 22.625 23.890625 
Q 32.328125 33.6875 34.8125 36.53125 
Q 39.546875 41.84375 41.421875 45.53125 
Q 43.3125 49.21875 43.3125 52.78125 
Q 43.3125 58.59375 39.234375 62.25 
Q 35.15625 65.921875 28.609375 65.921875 
Q 23.96875 65.921875 18.8125 64.3125 
Q 13.671875 62.703125 7.8125 59.421875 
L 7.8125 69.390625 
Q 13.765625 71.78125 18.9375 73 
Q 24.125 74.21875 28.421875 74.21875 
Q 39.75 74.21875 46.484375 68.546875 
Q 53.21875 62.890625 53.21875 53.421875 
Q 53.21875 48.921875 51.53125 44.890625 
Q 49.859375 40.875 45.40625 35.40625 
Q 44.1875 33.984375 37.640625 27.21875 
Q 31.109375 20.453125 19.1875 8.296875 
z
" id="DejaVuSans-50"/>
       </defs>
       <use xlink:href="#DejaVuSans-8722"/>
       <use x="83.789062" xlink:href="#DejaVuSans-48"/>
       <use x="147.412109" xlink:href="#DejaVuSans-46"/>
       <use x="179.199219" xlink:href="#DejaVuSans-50"/>
      </g>
     </g>
    </g>
    <g id="xtick_2">
     <g id="line2d_2">
      <g>
       <use style="stroke:#000000;stroke-width:0.8;" x="180.036288" xlink:href="#m3c2b03d7ba" y="620.12"/>
      </g>
     </g>
     <g id="text_2">
      <!-- 0.0 -->
      <g transform="translate(172.084726 634.718438)scale(0.1 -0.1)">
       <use xlink:href="#DejaVuSans-48"/>
       <use x="63.623047" xlink:href="#DejaVuSans-46"/>
       <use x="95.410156" xlink:href="#DejaVuSans-48"/>
      </g>
     </g>
    </g>
    <g id="xtick_3">
     <g id="line2d_3">
      <g>
       <use style="stroke:#000000;stroke-width:0.8;" x="302.372405" xlink:href="#m3c2b03d7ba" y="620.12"/>
      </g>
     </g>
     <g id="text_3">
      <!-- 0.2 -->
      <g transform="translate(294.420843 634.718438)scale(0.1 -0.1)">
       <use xlink:href="#DejaVuSans-48"/>
       <use x="63.623047" xlink:href="#DejaVuSans-46"/>
       <use x="95.410156" xlink:href="#DejaVuSans-50"/>
      </g>
     </g>
    </g>
    <g id="xtick_4">
     <g id="line2d_4">
      <g>
       <use style="stroke:#000000;stroke-width:0.8;" x="424.708523" xlink:href="#m3c2b03d7ba" y="620.12"/>
      </g>
     </g>
     <g id="text_4">
      <!-- 0.4 -->
      <g transform="translate(416.75696 634.718438)scale(0.1 -0.1)">
       <defs>
        <path d="M 37.796875 64.3125 
L 12.890625 25.390625 
L 37.796875 25.390625 
z
M 35.203125 72.90625 
L 47.609375 72.90625 
L 47.609375 25.390625 
L 58.015625 25.390625 
L 58.015625 17.1875 
L 47.609375 17.1875 
L 47.609375 0 
L 37.796875 0 
L 37.796875 17.1875 
L 4.890625 17.1875 
L 4.890625 26.703125 
z
" id="DejaVuSans-52"/>
       </defs>
       <use xlink:href="#DejaVuSans-48"/>
       <use x="63.623047" xlink:href="#DejaVuSans-46"/>
       <use x="95.410156" xlink:href="#DejaVuSans-52"/>
      </g>
     </g>
    </g>
    <g id="xtick_5">
     <g id="line2d_5">
      <g>
       <use style="stroke:#000000;stroke-width:0.8;" x="547.04464" xlink:href="#m3c2b03d7ba" y="620.12"/>
      </g>
     </g>
     <g id="text_5">
      <!-- 0.6 -->
      <g transform="translate(539.093077 634.718438)scale(0.1 -0.1)">
       <defs>
        <path d="M 33.015625 40.375 
Q 26.375 40.375 22.484375 35.828125 
Q 18.609375 31.296875 18.609375 23.390625 
Q 18.609375 15.53125 22.484375 10.953125 
Q 26.375 6.390625 33.015625 6.390625 
Q 39.65625 6.390625 43.53125 10.953125 
Q 47.40625 15.53125 47.40625 23.390625 
Q 47.40625 31.296875 43.53125 35.828125 
Q 39.65625 40.375 33.015625 40.375 
z
M 52.59375 71.296875 
L 52.59375 62.3125 
Q 48.875 64.0625 45.09375 64.984375 
Q 41.3125 65.921875 37.59375 65.921875 
Q 27.828125 65.921875 22.671875 59.328125 
Q 17.53125 52.734375 16.796875 39.40625 
Q 19.671875 43.65625 24.015625 45.921875 
Q 28.375 48.1875 33.59375 48.1875 
Q 44.578125 48.1875 50.953125 41.515625 
Q 57.328125 34.859375 57.328125 23.390625 
Q 57.328125 12.15625 50.6875 5.359375 
Q 44.046875 -1.421875 33.015625 -1.421875 
Q 20.359375 -1.421875 13.671875 8.265625 
Q 6.984375 17.96875 6.984375 36.375 
Q 6.984375 53.65625 15.1875 63.9375 
Q 23.390625 74.21875 37.203125 74.21875 
Q 40.921875 74.21875 44.703125 73.484375 
Q 48.484375 72.75 52.59375 71.296875 
z
" id="DejaVuSans-54"/>
       </defs>
       <use xlink:href="#DejaVuSans-48"/>
       <use x="63.623047" xlink:href="#DejaVuSans-46"/>
       <use x="95.410156" xlink:href="#DejaVuSans-54"/>
      </g>
     </g>
    </g>
   </g>
   <g id="matplotlib.axis_2">
    <g id="ytick_1">
     <g id="line2d_6">
      <defs>
       <path d="M 0 0 
L -3.5 0 
" id="m1e416eb1af" style="stroke:#000000;stroke-width:0.8;"/>
      </defs>
      <g>
       <use style="stroke:#000000;stroke-width:0.8;" x="48.31" xlink:href="#m1e416eb1af" y="592.154134"/>
      </g>
     </g>
     <g id="text_6">
      <!-- −0.15 -->
      <g transform="translate(10.664688 595.953353)scale(0.1 -0.1)">
       <defs>
        <path d="M 12.40625 8.296875 
L 28.515625 8.296875 
L 28.515625 63.921875 
L 10.984375 60.40625 
L 10.984375 69.390625 
L 28.421875 72.90625 
L 38.28125 72.90625 
L 38.28125 8.296875 
L 54.390625 8.296875 
L 54.390625 0 
L 12.40625 0 
z
" id="DejaVuSans-49"/>
        <path d="M 10.796875 72.90625 
L 49.515625 72.90625 
L 49.515625 64.59375 
L 19.828125 64.59375 
L 19.828125 46.734375 
Q 21.96875 47.46875 24.109375 47.828125 
Q 26.265625 48.1875 28.421875 48.1875 
Q 40.625 48.1875 47.75 41.5 
Q 54.890625 34.8125 54.890625 23.390625 
Q 54.890625 11.625 47.5625 5.09375 
Q 40.234375 -1.421875 26.90625 -1.421875 
Q 22.3125 -1.421875 17.546875 -0.640625 
Q 12.796875 0.140625 7.71875 1.703125 
L 7.71875 11.625 
Q 12.109375 9.234375 16.796875 8.0625 
Q 21.484375 6.890625 26.703125 6.890625 
Q 35.15625 6.890625 40.078125 11.328125 
Q 45.015625 15.765625 45.015625 23.390625 
Q 45.015625 31 40.078125 35.4375 
Q 35.15625 39.890625 26.703125 39.890625 
Q 22.75 39.890625 18.8125 39.015625 
Q 14.890625 38.140625 10.796875 36.28125 
z
" id="DejaVuSans-53"/>
       </defs>
       <use xlink:href="#DejaVuSans-8722"/>
       <use x="83.789062" xlink:href="#DejaVuSans-48"/>
       <use x="147.412109" xlink:href="#DejaVuSans-46"/>
       <use x="179.199219" xlink:href="#DejaVuSans-49"/>
       <use x="242.822266" xlink:href="#DejaVuSans-53"/>
      </g>
     </g>
    </g>
    <g id="ytick_2">
     <g id="line2d_7">
      <g>
       <use style="stroke:#000000;stroke-width:0.8;" x="48.31" xlink:href="#m1e416eb1af" y="501.533773"/>
      </g>
     </g>
     <g id="text_7">
      <!-- −0.10 -->
      <g transform="translate(10.664688 505.332992)scale(0.1 -0.1)">
       <use xlink:href="#DejaVuSans-8722"/>
       <use x="83.789062" xlink:href="#DejaVuSans-48"/>
       <use x="147.412109" xlink:href="#DejaVuSans-46"/>
       <use x="179.199219" xlink:href="#DejaVuSans-49"/>
       <use x="242.822266" xlink:href="#DejaVuSans-48"/>
      </g>
     </g>
    </g>
    <g id="ytick_3">
     <g id="line2d_8">
      <g>
       <use style="stroke:#000000;stroke-width:0.8;" x="48.31" xlink:href="#m1e416eb1af" y="410.913412"/>
      </g>
     </g>
     <g id="text_8">
      <!-- −0.05 -->
      <g transform="translate(10.664688 414.712631)scale(0.1 -0.1)">
       <use xlink:href="#DejaVuSans-8722"/>
       <use x="83.789062" xlink:href="#DejaVuSans-48"/>
       <use x="147.412109" xlink:href="#DejaVuSans-46"/>
       <use x="179.199219" xlink:href="#DejaVuSans-48"/>
       <use x="242.822266" xlink:href="#DejaVuSans-53"/>
      </g>
     </g>
    </g>
    <g id="ytick_4">
     <g id="line2d_9">
      <g>
       <use style="stroke:#000000;stroke-width:0.8;" x="48.31" xlink:href="#m1e416eb1af" y="320.293051"/>
      </g>
     </g>
     <g id="text_9">
      <!-- 0.00 -->
      <g transform="translate(19.044375 324.09227)scale(0.1 -0.1)">
       <use xlink:href="#DejaVuSans-48"/>
       <use x="63.623047" xlink:href="#DejaVuSans-46"/>
       <use x="95.410156" xlink:href="#DejaVuSans-48"/>
       <use x="159.033203" xlink:href="#DejaVuSans-48"/>
      </g>
     </g>
    </g>
    <g id="ytick_5">
     <g id="line2d_10">
      <g>
       <use style="stroke:#000000;stroke-width:0.8;" x="48.31" xlink:href="#m1e416eb1af" y="229.67269"/>
      </g>
     </g>
     <g id="text_10">
      <!-- 0.05 -->
      <g transform="translate(19.044375 233.471909)scale(0.1 -0.1)">
       <use xlink:href="#DejaVuSans-48"/>
       <use x="63.623047" xlink:href="#DejaVuSans-46"/>
       <use x="95.410156" xlink:href="#DejaVuSans-48"/>
       <use x="159.033203" xlink:href="#DejaVuSans-53"/>
      </g>
     </g>
    </g>
    <g id="ytick_6">
     <g id="line2d_11">
      <g>
       <use style="stroke:#000000;stroke-width:0.8;" x="48.31" xlink:href="#m1e416eb1af" y="139.052329"/>
      </g>
     </g>
     <g id="text_11">
      <!-- 0.10 -->
      <g transform="translate(19.044375 142.851548)scale(0.1 -0.1)">
       <use xlink:href="#DejaVuSans-48"/>
       <use x="63.623047" xlink:href="#DejaVuSans-46"/>
       <use x="95.410156" xlink:href="#DejaVuSans-49"/>
       <use x="159.033203" xlink:href="#DejaVuSans-48"/>
      </g>
     </g>
    </g>
    <g id="ytick_7">
     <g id="line2d_12">
      <g>
       <use style="stroke:#000000;stroke-width:0.8;" x="48.31" xlink:href="#m1e416eb1af" y="48.431968"/>
      </g>
     </g>
     <g id="text_12">
      <!-- 0.15 -->
      <g transform="translate(19.044375 52.231187)scale(0.1 -0.1)">
       <use xlink:href="#DejaVuSans-48"/>
       <use x="63.623047" xlink:href="#DejaVuSans-46"/>
       <use x="95.410156" xlink:href="#DejaVuSans-49"/>
       <use x="159.033203" xlink:href="#DejaVuSans-53"/>
      </g>
     </g>
    </g>
   </g>
   <g id="patch_3">
    <path d="M 48.31 620.12 
L 48.31 26.88 
" style="fill:none;stroke:#000000;stroke-linecap:square;stroke-linejoin:miter;stroke-width:0.8;"/>
   </g>
   <g id="patch_4">
    <path d="M 627.627273 620.12 
L 627.627273 26.88 
" style="fill:none;stroke:#000000;stroke-linecap:square;stroke-linejoin:miter;stroke-width:0.8;"/>
   </g>
   <g id="patch_5">
    <path d="M 48.31 620.12 
L 627.627273 620.12 
" style="fill:none;stroke:#000000;stroke-linecap:square;stroke-linejoin:miter;stroke-width:0.8;"/>
   </g>
   <g id="patch_6">
    <path d="M 48.31 26.88 
L 627.627273 26.88 
" style="fill:none;stroke:#000000;stroke-linecap:square;stroke-linejoin:miter;stroke-width:0.8;"/>
   </g>
   <g id="text_13">
    <!-- HP101 -->
    <g transform="translate(98.9454 392.254763)scale(0.1 -0.1)">
     <defs>
      <path d="M 9.8125 72.90625 
L 19.671875 72.90625 
L 19.671875 43.015625 
L 55.515625 43.015625 
L 55.515625 72.90625 
L 65.375 72.90625 
L 65.375 0 
L 55.515625 0 
L 55.515625 34.71875 
L 19.671875 34.71875 
L 19.671875 0 
L 9.8125 0 
z
" id="DejaVuSans-72"/>
      <path d="M 19.671875 64.796875 
L 19.671875 37.40625 
L 32.078125 37.40625 
Q 38.96875 37.40625 42.71875 40.96875 
Q 46.484375 44.53125 46.484375 51.125 
Q 46.484375 57.671875 42.71875 61.234375 
Q 38.96875 64.796875 32.078125 64.796875 
z
M 9.8125 72.90625 
L 32.078125 72.90625 
Q 44.34375 72.90625 50.609375 67.359375 
Q 56.890625 61.8125 56.890625 51.125 
Q 56.890625 40.328125 50.609375 34.8125 
Q 44.34375 29.296875 32.078125 29.296875 
L 19.671875 29.296875 
L 19.671875 0 
L 9.8125 0 
z
" id="DejaVuSans-80"/>
     </defs>
     <use xlink:href="#DejaVuSans-72"/>
     <use x="75.195312" xlink:href="#DejaVuSans-80"/>
     <use x="135.498047" xlink:href="#DejaVuSans-49"/>
     <use x="199.121094" xlink:href="#DejaVuSans-48"/>
     <use x="262.744141" xlink:href="#DejaVuSans-49"/>
    </g>
   </g>
   <g id="text_14">
    <!-- HP135 -->
    <g transform="translate(105.049829 392.164394)scale(0.1 -0.1)">
     <defs>
      <path d="M 40.578125 39.3125 
Q 47.65625 37.796875 51.625 33 
Q 55.609375 28.21875 55.609375 21.1875 
Q 55.609375 10.40625 48.1875 4.484375 
Q 40.765625 -1.421875 27.09375 -1.421875 
Q 22.515625 -1.421875 17.65625 -0.515625 
Q 12.796875 0.390625 7.625 2.203125 
L 7.625 11.71875 
Q 11.71875 9.328125 16.59375 8.109375 
Q 21.484375 6.890625 26.8125 6.890625 
Q 36.078125 6.890625 40.9375 10.546875 
Q 45.796875 14.203125 45.796875 21.1875 
Q 45.796875 27.640625 41.28125 31.265625 
Q 36.765625 34.90625 28.71875 34.90625 
L 20.21875 34.90625 
L 20.21875 43.015625 
L 29.109375 43.015625 
Q 36.375 43.015625 40.234375 45.921875 
Q 44.09375 48.828125 44.09375 54.296875 
Q 44.09375 59.90625 40.109375 62.90625 
Q 36.140625 65.921875 28.71875 65.921875 
Q 24.65625 65.921875 20.015625 65.03125 
Q 15.375 64.15625 9.8125 62.3125 
L 9.8125 71.09375 
Q 15.4375 72.65625 20.34375 73.4375 
Q 25.25 74.21875 29.59375 74.21875 
Q 40.828125 74.21875 47.359375 69.109375 
Q 53.90625 64.015625 53.90625 55.328125 
Q 53.90625 49.265625 50.4375 45.09375 
Q 46.96875 40.921875 40.578125 39.3125 
z
" id="DejaVuSans-51"/>
     </defs>
     <use xlink:href="#DejaVuSans-72"/>
     <use x="75.195312" xlink:href="#DejaVuSans-80"/>
     <use x="135.498047" xlink:href="#DejaVuSans-49"/>
     <use x="199.121094" xlink:href="#DejaVuSans-51"/>
     <use x="262.744141" xlink:href="#DejaVuSans-53"/>
    </g>
   </g>
   <g id="text_15">
    <!-- HP139 -->
    <g transform="translate(86.289018 354.191661)scale(0.1 -0.1)">
     <defs>
      <path d="M 10.984375 1.515625 
L 10.984375 10.5 
Q 14.703125 8.734375 18.5 7.8125 
Q 22.3125 6.890625 25.984375 6.890625 
Q 35.75 6.890625 40.890625 13.453125 
Q 46.046875 20.015625 46.78125 33.40625 
Q 43.953125 29.203125 39.59375 26.953125 
Q 35.25 24.703125 29.984375 24.703125 
Q 19.046875 24.703125 12.671875 31.3125 
Q 6.296875 37.9375 6.296875 49.421875 
Q 6.296875 60.640625 12.9375 67.421875 
Q 19.578125 74.21875 30.609375 74.21875 
Q 43.265625 74.21875 49.921875 64.515625 
Q 56.59375 54.828125 56.59375 36.375 
Q 56.59375 19.140625 48.40625 8.859375 
Q 40.234375 -1.421875 26.421875 -1.421875 
Q 22.703125 -1.421875 18.890625 -0.6875 
Q 15.09375 0.046875 10.984375 1.515625 
z
M 30.609375 32.421875 
Q 37.25 32.421875 41.125 36.953125 
Q 45.015625 41.5 45.015625 49.421875 
Q 45.015625 57.28125 41.125 61.84375 
Q 37.25 66.40625 30.609375 66.40625 
Q 23.96875 66.40625 20.09375 61.84375 
Q 16.21875 57.28125 16.21875 49.421875 
Q 16.21875 41.5 20.09375 36.953125 
Q 23.96875 32.421875 30.609375 32.421875 
z
" id="DejaVuSans-57"/>
     </defs>
     <use xlink:href="#DejaVuSans-72"/>
     <use x="75.195312" xlink:href="#DejaVuSans-80"/>
     <use x="135.498047" xlink:href="#DejaVuSans-49"/>
     <use x="199.121094" xlink:href="#DejaVuSans-51"/>
     <use x="262.744141" xlink:href="#DejaVuSans-57"/>
    </g>
   </g>
   <g id="text_16">
    <!-- HP141 -->
    <g transform="translate(90.974456 362.153646)scale(0.1 -0.1)">
     <use xlink:href="#DejaVuSans-72"/>
     <use x="75.195312" xlink:href="#DejaVuSans-80"/>
     <use x="135.498047" xlink:href="#DejaVuSans-49"/>
     <use x="199.121094" xlink:href="#DejaVuSans-52"/>
     <use x="262.744141" xlink:href="#DejaVuSans-49"/>
    </g>
   </g>
   <g id="text_17">
    <!-- HP152 -->
    <g transform="translate(84.65956 361.538488)scale(0.1 -0.1)">
     <use xlink:href="#DejaVuSans-72"/>
     <use x="75.195312" xlink:href="#DejaVuSans-80"/>
     <use x="135.498047" xlink:href="#DejaVuSans-49"/>
     <use x="199.121094" xlink:href="#DejaVuSans-53"/>
     <use x="262.744141" xlink:href="#DejaVuSans-50"/>
    </g>
   </g>
   <g id="text_18">
    <!-- HP158 -->
    <g transform="translate(85.639175 353.269128)scale(0.1 -0.1)">
     <defs>
      <path d="M 31.78125 34.625 
Q 24.75 34.625 20.71875 30.859375 
Q 16.703125 27.09375 16.703125 20.515625 
Q 16.703125 13.921875 20.71875 10.15625 
Q 24.75 6.390625 31.78125 6.390625 
Q 38.8125 6.390625 42.859375 10.171875 
Q 46.921875 13.96875 46.921875 20.515625 
Q 46.921875 27.09375 42.890625 30.859375 
Q 38.875 34.625 31.78125 34.625 
z
M 21.921875 38.8125 
Q 15.578125 40.375 12.03125 44.71875 
Q 8.5 49.078125 8.5 55.328125 
Q 8.5 64.0625 14.71875 69.140625 
Q 20.953125 74.21875 31.78125 74.21875 
Q 42.671875 74.21875 48.875 69.140625 
Q 55.078125 64.0625 55.078125 55.328125 
Q 55.078125 49.078125 51.53125 44.71875 
Q 48 40.375 41.703125 38.8125 
Q 48.828125 37.15625 52.796875 32.3125 
Q 56.78125 27.484375 56.78125 20.515625 
Q 56.78125 9.90625 50.3125 4.234375 
Q 43.84375 -1.421875 31.78125 -1.421875 
Q 19.734375 -1.421875 13.25 4.234375 
Q 6.78125 9.90625 6.78125 20.515625 
Q 6.78125 27.484375 10.78125 32.3125 
Q 14.796875 37.15625 21.921875 38.8125 
z
M 18.3125 54.390625 
Q 18.3125 48.734375 21.84375 45.5625 
Q 25.390625 42.390625 31.78125 42.390625 
Q 38.140625 42.390625 41.71875 45.5625 
Q 45.3125 48.734375 45.3125 54.390625 
Q 45.3125 60.0625 41.71875 63.234375 
Q 38.140625 66.40625 31.78125 66.40625 
Q 25.390625 66.40625 21.84375 63.234375 
Q 18.3125 60.0625 18.3125 54.390625 
z
" id="DejaVuSans-56"/>
     </defs>
     <use xlink:href="#DejaVuSans-72"/>
     <use x="75.195312" xlink:href="#DejaVuSans-80"/>
     <use x="135.498047" xlink:href="#DejaVuSans-49"/>
     <use x="199.121094" xlink:href="#DejaVuSans-53"/>
     <use x="262.744141" xlink:href="#DejaVuSans-56"/>
    </g>
   </g>
   <g id="text_19">
    <!-- HP205 -->
    <g transform="translate(83.866076 349.086782)scale(0.1 -0.1)">
     <use xlink:href="#DejaVuSans-72"/>
     <use x="75.195312" xlink:href="#DejaVuSans-80"/>
     <use x="135.498047" xlink:href="#DejaVuSans-50"/>
     <use x="199.121094" xlink:href="#DejaVuSans-48"/>
     <use x="262.744141" xlink:href="#DejaVuSans-53"/>
    </g>
   </g>
   <g id="text_20">
    <!-- HP227 -->
    <g transform="translate(80.776152 359.513864)scale(0.1 -0.1)">
     <defs>
      <path d="M 8.203125 72.90625 
L 55.078125 72.90625 
L 55.078125 68.703125 
L 28.609375 0 
L 18.3125 0 
L 43.21875 64.59375 
L 8.203125 64.59375 
z
" id="DejaVuSans-55"/>
     </defs>
     <use xlink:href="#DejaVuSans-72"/>
     <use x="75.195312" xlink:href="#DejaVuSans-80"/>
     <use x="135.498047" xlink:href="#DejaVuSans-50"/>
     <use x="199.121094" xlink:href="#DejaVuSans-50"/>
     <use x="262.744141" xlink:href="#DejaVuSans-55"/>
    </g>
   </g>
   <g id="text_21">
    <!-- HP232 -->
    <g transform="translate(85.023633 359.298906)scale(0.1 -0.1)">
     <use xlink:href="#DejaVuSans-72"/>
     <use x="75.195312" xlink:href="#DejaVuSans-80"/>
     <use x="135.498047" xlink:href="#DejaVuSans-50"/>
     <use x="199.121094" xlink:href="#DejaVuSans-51"/>
     <use x="262.744141" xlink:href="#DejaVuSans-50"/>
    </g>
   </g>
   <g id="text_22">
    <!-- HP236 -->
    <g transform="translate(103.537114 399.351019)scale(0.1 -0.1)">
     <use xlink:href="#DejaVuSans-72"/>
     <use x="75.195312" xlink:href="#DejaVuSans-80"/>
     <use x="135.498047" xlink:href="#DejaVuSans-50"/>
     <use x="199.121094" xlink:href="#DejaVuSans-51"/>
     <use x="262.744141" xlink:href="#DejaVuSans-54"/>
    </g>
   </g>
   <g id="text_23">
    <!-- HP241 -->
    <g transform="translate(86.177226 355.848759)scale(0.1 -0.1)">
     <use xlink:href="#DejaVuSans-72"/>
     <use x="75.195312" xlink:href="#DejaVuSans-80"/>
     <use x="135.498047" xlink:href="#DejaVuSans-50"/>
     <use x="199.121094" xlink:href="#DejaVuSans-52"/>
     <use x="262.744141" xlink:href="#DejaVuSans-49"/>
    </g>
   </g>
   <g id="text_24">
    <!-- HP244 -->
    <g transform="translate(89.48693 349.137002)scale(0.1 -0.1)">
     <use xlink:href="#DejaVuSans-72"/>
     <use x="75.195312" xlink:href="#DejaVuSans-80"/>
     <use x="135.498047" xlink:href="#DejaVuSans-50"/>
     <use x="199.121094" xlink:href="#DejaVuSans-52"/>
     <use x="262.744141" xlink:href="#DejaVuSans-52"/>
    </g>
   </g>
   <g id="text_25">
    <!-- HP273 -->
    <g transform="translate(519.724265 593.154545)scale(0.1 -0.1)">
     <use xlink:href="#DejaVuSans-72"/>
     <use x="75.195312" xlink:href="#DejaVuSans-80"/>
     <use x="135.498047" xlink:href="#DejaVuSans-50"/>
     <use x="199.121094" xlink:href="#DejaVuSans-55"/>
     <use x="262.744141" xlink:href="#DejaVuSans-51"/>
    </g>
   </g>
   <g id="text_26">
    <!-- HP286 -->
    <g transform="translate(479.790864 427.56546)scale(0.1 -0.1)">
     <use xlink:href="#DejaVuSans-72"/>
     <use x="75.195312" xlink:href="#DejaVuSans-80"/>
     <use x="135.498047" xlink:href="#DejaVuSans-50"/>
     <use x="199.121094" xlink:href="#DejaVuSans-56"/>
     <use x="262.744141" xlink:href="#DejaVuSans-54"/>
    </g>
   </g>
   <g id="text_27">
    <!-- HP354 -->
    <g transform="translate(601.294669 249.810919)scale(0.1 -0.1)">
     <use xlink:href="#DejaVuSans-72"/>
     <use x="75.195312" xlink:href="#DejaVuSans-80"/>
     <use x="135.498047" xlink:href="#DejaVuSans-51"/>
     <use x="199.121094" xlink:href="#DejaVuSans-53"/>
     <use x="262.744141" xlink:href="#DejaVuSans-52"/>
    </g>
   </g>
   <g id="text_28">
    <!-- HP104 -->
    <g transform="translate(95.42762 341.376813)scale(0.1 -0.1)">
     <use xlink:href="#DejaVuSans-72"/>
     <use x="75.195312" xlink:href="#DejaVuSans-80"/>
     <use x="135.498047" xlink:href="#DejaVuSans-49"/>
     <use x="199.121094" xlink:href="#DejaVuSans-48"/>
     <use x="262.744141" xlink:href="#DejaVuSans-52"/>
    </g>
   </g>
   <g id="text_29">
    <!-- HP111 -->
    <g transform="translate(89.40476 413.843032)scale(0.1 -0.1)">
     <use xlink:href="#DejaVuSans-72"/>
     <use x="75.195312" xlink:href="#DejaVuSans-80"/>
     <use x="135.498047" xlink:href="#DejaVuSans-49"/>
     <use x="199.121094" xlink:href="#DejaVuSans-49"/>
     <use x="262.744141" xlink:href="#DejaVuSans-49"/>
    </g>
   </g>
   <g id="text_30">
    <!-- HP115 -->
    <g transform="translate(106.132382 395.155946)scale(0.1 -0.1)">
     <use xlink:href="#DejaVuSans-72"/>
     <use x="75.195312" xlink:href="#DejaVuSans-80"/>
     <use x="135.498047" xlink:href="#DejaVuSans-49"/>
     <use x="199.121094" xlink:href="#DejaVuSans-49"/>
     <use x="262.744141" xlink:href="#DejaVuSans-53"/>
    </g>
   </g>
   <g id="text_31">
    <!-- HP116 -->
    <g transform="translate(392.099038 127.266668)scale(0.1 -0.1)">
     <use xlink:href="#DejaVuSans-72"/>
     <use x="75.195312" xlink:href="#DejaVuSans-80"/>
     <use x="135.498047" xlink:href="#DejaVuSans-49"/>
     <use x="199.121094" xlink:href="#DejaVuSans-49"/>
     <use x="262.744141" xlink:href="#DejaVuSans-54"/>
    </g>
   </g>
   <g id="text_32">
    <!-- HP127 -->
    <g transform="translate(98.801822 391.272297)scale(0.1 -0.1)">
     <use xlink:href="#DejaVuSans-72"/>
     <use x="75.195312" xlink:href="#DejaVuSans-80"/>
     <use x="135.498047" xlink:href="#DejaVuSans-49"/>
     <use x="199.121094" xlink:href="#DejaVuSans-50"/>
     <use x="262.744141" xlink:href="#DejaVuSans-55"/>
    </g>
   </g>
   <g id="text_33">
    <!-- HP130 -->
    <g transform="translate(92.911132 362.043679)scale(0.1 -0.1)">
     <use xlink:href="#DejaVuSans-72"/>
     <use x="75.195312" xlink:href="#DejaVuSans-80"/>
     <use x="135.498047" xlink:href="#DejaVuSans-49"/>
     <use x="199.121094" xlink:href="#DejaVuSans-51"/>
     <use x="262.744141" xlink:href="#DejaVuSans-48"/>
    </g>
   </g>
   <g id="text_34">
    <!-- HP136 -->
    <g transform="translate(359.042125 214.109108)scale(0.1 -0.1)">
     <use xlink:href="#DejaVuSans-72"/>
     <use x="75.195312" xlink:href="#DejaVuSans-80"/>
     <use x="135.498047" xlink:href="#DejaVuSans-49"/>
     <use x="199.121094" xlink:href="#DejaVuSans-51"/>
     <use x="262.744141" xlink:href="#DejaVuSans-54"/>
    </g>
   </g>
   <g id="text_35">
    <!-- HP169 -->
    <g transform="translate(98.005936 170.031204)scale(0.1 -0.1)">
     <use xlink:href="#DejaVuSans-72"/>
     <use x="75.195312" xlink:href="#DejaVuSans-80"/>
     <use x="135.498047" xlink:href="#DejaVuSans-49"/>
     <use x="199.121094" xlink:href="#DejaVuSans-54"/>
     <use x="262.744141" xlink:href="#DejaVuSans-57"/>
    </g>
   </g>
   <g id="text_36">
    <!-- HP172 -->
    <g transform="translate(501.997054 155.308309)scale(0.1 -0.1)">
     <use xlink:href="#DejaVuSans-72"/>
     <use x="75.195312" xlink:href="#DejaVuSans-80"/>
     <use x="135.498047" xlink:href="#DejaVuSans-49"/>
     <use x="199.121094" xlink:href="#DejaVuSans-55"/>
     <use x="262.744141" xlink:href="#DejaVuSans-50"/>
    </g>
   </g>
   <g id="text_37">
    <!-- HP173 -->
    <g transform="translate(77.486815 343.684155)scale(0.1 -0.1)">
     <use xlink:href="#DejaVuSans-72"/>
     <use x="75.195312" xlink:href="#DejaVuSans-80"/>
     <use x="135.498047" xlink:href="#DejaVuSans-49"/>
     <use x="199.121094" xlink:href="#DejaVuSans-55"/>
     <use x="262.744141" xlink:href="#DejaVuSans-51"/>
    </g>
   </g>
   <g id="text_38">
    <!-- HP179 -->
    <g transform="translate(86.184968 357.902855)scale(0.1 -0.1)">
     <use xlink:href="#DejaVuSans-72"/>
     <use x="75.195312" xlink:href="#DejaVuSans-80"/>
     <use x="135.498047" xlink:href="#DejaVuSans-49"/>
     <use x="199.121094" xlink:href="#DejaVuSans-55"/>
     <use x="262.744141" xlink:href="#DejaVuSans-57"/>
    </g>
   </g>
   <g id="text_39">
    <!-- HP182 -->
    <g transform="translate(83.175508 348.419902)scale(0.1 -0.1)">
     <use xlink:href="#DejaVuSans-72"/>
     <use x="75.195312" xlink:href="#DejaVuSans-80"/>
     <use x="135.498047" xlink:href="#DejaVuSans-49"/>
     <use x="199.121094" xlink:href="#DejaVuSans-56"/>
     <use x="262.744141" xlink:href="#DejaVuSans-50"/>
    </g>
   </g>
   <g id="text_40">
    <!-- HP192 -->
    <g transform="translate(437.004127 437.804416)scale(0.1 -0.1)">
     <use xlink:href="#DejaVuSans-72"/>
     <use x="75.195312" xlink:href="#DejaVuSans-80"/>
     <use x="135.498047" xlink:href="#DejaVuSans-49"/>
     <use x="199.121094" xlink:href="#DejaVuSans-57"/>
     <use x="262.744141" xlink:href="#DejaVuSans-50"/>
    </g>
   </g>
   <g id="text_41">
    <!-- HP194 -->
    <g transform="translate(568.250431 545.23309)scale(0.1 -0.1)">
     <use xlink:href="#DejaVuSans-72"/>
     <use x="75.195312" xlink:href="#DejaVuSans-80"/>
     <use x="135.498047" xlink:href="#DejaVuSans-49"/>
     <use x="199.121094" xlink:href="#DejaVuSans-57"/>
     <use x="262.744141" xlink:href="#DejaVuSans-52"/>
    </g>
   </g>
   <g id="text_42">
    <!-- HP199 -->
    <g transform="translate(93.12587 320.61433)scale(0.1 -0.1)">
     <use xlink:href="#DejaVuSans-72"/>
     <use x="75.195312" xlink:href="#DejaVuSans-80"/>
     <use x="135.498047" xlink:href="#DejaVuSans-49"/>
     <use x="199.121094" xlink:href="#DejaVuSans-57"/>
     <use x="262.744141" xlink:href="#DejaVuSans-57"/>
    </g>
   </g>
   <g id="text_43">
    <!-- HP200 -->
    <g transform="translate(80.334479 350.108152)scale(0.1 -0.1)">
     <use xlink:href="#DejaVuSans-72"/>
     <use x="75.195312" xlink:href="#DejaVuSans-80"/>
     <use x="135.498047" xlink:href="#DejaVuSans-50"/>
     <use x="199.121094" xlink:href="#DejaVuSans-48"/>
     <use x="262.744141" xlink:href="#DejaVuSans-48"/>
    </g>
   </g>
   <g id="text_44">
    <!-- HP202 -->
    <g transform="translate(92.40257 91.318002)scale(0.1 -0.1)">
     <use xlink:href="#DejaVuSans-72"/>
     <use x="75.195312" xlink:href="#DejaVuSans-80"/>
     <use x="135.498047" xlink:href="#DejaVuSans-50"/>
     <use x="199.121094" xlink:href="#DejaVuSans-48"/>
     <use x="262.744141" xlink:href="#DejaVuSans-50"/>
    </g>
   </g>
   <g id="text_45">
    <!-- HP204 -->
    <g transform="translate(385.940123 451.719804)scale(0.1 -0.1)">
     <use xlink:href="#DejaVuSans-72"/>
     <use x="75.195312" xlink:href="#DejaVuSans-80"/>
     <use x="135.498047" xlink:href="#DejaVuSans-50"/>
     <use x="199.121094" xlink:href="#DejaVuSans-48"/>
     <use x="262.744141" xlink:href="#DejaVuSans-52"/>
    </g>
   </g>
   <g id="text_46">
    <!-- HP206 -->
    <g transform="translate(88.000051 165.609867)scale(0.1 -0.1)">
     <use xlink:href="#DejaVuSans-72"/>
     <use x="75.195312" xlink:href="#DejaVuSans-80"/>
     <use x="135.498047" xlink:href="#DejaVuSans-50"/>
     <use x="199.121094" xlink:href="#DejaVuSans-48"/>
     <use x="262.744141" xlink:href="#DejaVuSans-54"/>
    </g>
   </g>
   <g id="text_47">
    <!-- HP208 -->
    <g transform="translate(485.861011 232.656974)scale(0.1 -0.1)">
     <use xlink:href="#DejaVuSans-72"/>
     <use x="75.195312" xlink:href="#DejaVuSans-80"/>
     <use x="135.498047" xlink:href="#DejaVuSans-50"/>
     <use x="199.121094" xlink:href="#DejaVuSans-48"/>
     <use x="262.744141" xlink:href="#DejaVuSans-56"/>
    </g>
   </g>
   <g id="text_48">
    <!-- HP220 -->
    <g transform="translate(80.500976 184.551865)scale(0.1 -0.1)">
     <use xlink:href="#DejaVuSans-72"/>
     <use x="75.195312" xlink:href="#DejaVuSans-80"/>
     <use x="135.498047" xlink:href="#DejaVuSans-50"/>
     <use x="199.121094" xlink:href="#DejaVuSans-50"/>
     <use x="262.744141" xlink:href="#DejaVuSans-48"/>
    </g>
   </g>
   <g id="text_49">
    <!-- HP235 -->
    <g transform="translate(74.642603 362.596702)scale(0.1 -0.1)">
     <use xlink:href="#DejaVuSans-72"/>
     <use x="75.195312" xlink:href="#DejaVuSans-80"/>
     <use x="135.498047" xlink:href="#DejaVuSans-50"/>
     <use x="199.121094" xlink:href="#DejaVuSans-51"/>
     <use x="262.744141" xlink:href="#DejaVuSans-53"/>
    </g>
   </g>
   <g id="text_50">
    <!-- HP247 -->
    <g transform="translate(85.68513 356.341358)scale(0.1 -0.1)">
     <use xlink:href="#DejaVuSans-72"/>
     <use x="75.195312" xlink:href="#DejaVuSans-80"/>
     <use x="135.498047" xlink:href="#DejaVuSans-50"/>
     <use x="199.121094" xlink:href="#DejaVuSans-52"/>
     <use x="262.744141" xlink:href="#DejaVuSans-55"/>
    </g>
   </g>
   <g id="text_51">
    <!-- HP250 -->
    <g transform="translate(82.410235 357.766839)scale(0.1 -0.1)">
     <use xlink:href="#DejaVuSans-72"/>
     <use x="75.195312" xlink:href="#DejaVuSans-80"/>
     <use x="135.498047" xlink:href="#DejaVuSans-50"/>
     <use x="199.121094" xlink:href="#DejaVuSans-53"/>
     <use x="262.744141" xlink:href="#DejaVuSans-48"/>
    </g>
   </g>
   <g id="text_52">
    <!-- HP251 -->
    <g transform="translate(80.757016 353.840944)scale(0.1 -0.1)">
     <use xlink:href="#DejaVuSans-72"/>
     <use x="75.195312" xlink:href="#DejaVuSans-80"/>
     <use x="135.498047" xlink:href="#DejaVuSans-50"/>
     <use x="199.121094" xlink:href="#DejaVuSans-53"/>
     <use x="262.744141" xlink:href="#DejaVuSans-49"/>
    </g>
   </g>
   <g id="text_53">
    <!-- HP259 -->
    <g transform="translate(91.963809 87.87133)scale(0.1 -0.1)">
     <use xlink:href="#DejaVuSans-72"/>
     <use x="75.195312" xlink:href="#DejaVuSans-80"/>
     <use x="135.498047" xlink:href="#DejaVuSans-50"/>
     <use x="199.121094" xlink:href="#DejaVuSans-53"/>
     <use x="262.744141" xlink:href="#DejaVuSans-57"/>
    </g>
   </g>
   <g id="text_54">
    <!-- HP264 -->
    <g transform="translate(83.410641 356.258709)scale(0.1 -0.1)">
     <use xlink:href="#DejaVuSans-72"/>
     <use x="75.195312" xlink:href="#DejaVuSans-80"/>
     <use x="135.498047" xlink:href="#DejaVuSans-50"/>
     <use x="199.121094" xlink:href="#DejaVuSans-54"/>
     <use x="262.744141" xlink:href="#DejaVuSans-52"/>
    </g>
   </g>
   <g id="text_55">
    <!-- HP265 -->
    <g transform="translate(89.26578 328.510356)scale(0.1 -0.1)">
     <use xlink:href="#DejaVuSans-72"/>
     <use x="75.195312" xlink:href="#DejaVuSans-80"/>
     <use x="135.498047" xlink:href="#DejaVuSans-50"/>
     <use x="199.121094" xlink:href="#DejaVuSans-54"/>
     <use x="262.744141" xlink:href="#DejaVuSans-53"/>
    </g>
   </g>
   <g id="text_56">
    <!-- HP268 -->
    <g transform="translate(80.714358 336.917996)scale(0.1 -0.1)">
     <use xlink:href="#DejaVuSans-72"/>
     <use x="75.195312" xlink:href="#DejaVuSans-80"/>
     <use x="135.498047" xlink:href="#DejaVuSans-50"/>
     <use x="199.121094" xlink:href="#DejaVuSans-54"/>
     <use x="262.744141" xlink:href="#DejaVuSans-56"/>
    </g>
   </g>
   <g id="text_57">
    <!-- HP270 -->
    <g transform="translate(78.567965 359.591862)scale(0.1 -0.1)">
     <use xlink:href="#DejaVuSans-72"/>
     <use x="75.195312" xlink:href="#DejaVuSans-80"/>
     <use x="135.498047" xlink:href="#DejaVuSans-50"/>
     <use x="199.121094" xlink:href="#DejaVuSans-55"/>
     <use x="262.744141" xlink:href="#DejaVuSans-48"/>
    </g>
   </g>
   <g id="text_58">
    <!-- HP272 -->
    <g transform="translate(78.495706 355.85825)scale(0.1 -0.1)">
     <use xlink:href="#DejaVuSans-72"/>
     <use x="75.195312" xlink:href="#DejaVuSans-80"/>
     <use x="135.498047" xlink:href="#DejaVuSans-50"/>
     <use x="199.121094" xlink:href="#DejaVuSans-55"/>
     <use x="262.744141" xlink:href="#DejaVuSans-50"/>
    </g>
   </g>
   <g id="text_59">
    <!-- HP275 -->
    <g transform="translate(81.039382 360.792663)scale(0.1 -0.1)">
     <use xlink:href="#DejaVuSans-72"/>
     <use x="75.195312" xlink:href="#DejaVuSans-80"/>
     <use x="135.498047" xlink:href="#DejaVuSans-50"/>
     <use x="199.121094" xlink:href="#DejaVuSans-55"/>
     <use x="262.744141" xlink:href="#DejaVuSans-53"/>
    </g>
   </g>
   <g id="text_60">
    <!-- HP280 -->
    <g transform="translate(252.487096 134.507914)scale(0.1 -0.1)">
     <use xlink:href="#DejaVuSans-72"/>
     <use x="75.195312" xlink:href="#DejaVuSans-80"/>
     <use x="135.498047" xlink:href="#DejaVuSans-50"/>
     <use x="199.121094" xlink:href="#DejaVuSans-56"/>
     <use x="262.744141" xlink:href="#DejaVuSans-48"/>
    </g>
   </g>
   <g id="text_61">
    <!-- HP281 -->
    <g transform="translate(164.968972 185.195127)scale(0.1 -0.1)">
     <use xlink:href="#DejaVuSans-72"/>
     <use x="75.195312" xlink:href="#DejaVuSans-80"/>
     <use x="135.498047" xlink:href="#DejaVuSans-50"/>
     <use x="199.121094" xlink:href="#DejaVuSans-56"/>
     <use x="262.744141" xlink:href="#DejaVuSans-49"/>
    </g>
   </g>
   <g id="text_62">
    <!-- HP285 -->
    <g transform="translate(88.760798 410.946145)scale(0.1 -0.1)">
     <use xlink:href="#DejaVuSans-72"/>
     <use x="75.195312" xlink:href="#DejaVuSans-80"/>
     <use x="135.498047" xlink:href="#DejaVuSans-50"/>
     <use x="199.121094" xlink:href="#DejaVuSans-56"/>
     <use x="262.744141" xlink:href="#DejaVuSans-53"/>
    </g>
   </g>
   <g id="text_63">
    <!-- HP288 -->
    <g transform="translate(98.261397 329.504981)scale(0.1 -0.1)">
     <use xlink:href="#DejaVuSans-72"/>
     <use x="75.195312" xlink:href="#DejaVuSans-80"/>
     <use x="135.498047" xlink:href="#DejaVuSans-50"/>
     <use x="199.121094" xlink:href="#DejaVuSans-56"/>
     <use x="262.744141" xlink:href="#DejaVuSans-56"/>
    </g>
   </g>
   <g id="text_64">
    <!-- HP289 -->
    <g transform="translate(84.91308 356.789254)scale(0.1 -0.1)">
     <use xlink:href="#DejaVuSans-72"/>
     <use x="75.195312" xlink:href="#DejaVuSans-80"/>
     <use x="135.498047" xlink:href="#DejaVuSans-50"/>
     <use x="199.121094" xlink:href="#DejaVuSans-56"/>
     <use x="262.744141" xlink:href="#DejaVuSans-57"/>
    </g>
   </g>
   <g id="text_65">
    <!-- HP291 -->
    <g transform="translate(82.680856 342.598976)scale(0.1 -0.1)">
     <use xlink:href="#DejaVuSans-72"/>
     <use x="75.195312" xlink:href="#DejaVuSans-80"/>
     <use x="135.498047" xlink:href="#DejaVuSans-50"/>
     <use x="199.121094" xlink:href="#DejaVuSans-57"/>
     <use x="262.744141" xlink:href="#DejaVuSans-49"/>
    </g>
   </g>
   <g id="text_66">
    <!-- HP293 -->
    <g transform="translate(250.621118 155.934007)scale(0.1 -0.1)">
     <use xlink:href="#DejaVuSans-72"/>
     <use x="75.195312" xlink:href="#DejaVuSans-80"/>
     <use x="135.498047" xlink:href="#DejaVuSans-50"/>
     <use x="199.121094" xlink:href="#DejaVuSans-57"/>
     <use x="262.744141" xlink:href="#DejaVuSans-51"/>
    </g>
   </g>
   <g id="text_67">
    <!-- HP294 -->
    <g transform="translate(94.399804 389.834525)scale(0.1 -0.1)">
     <use xlink:href="#DejaVuSans-72"/>
     <use x="75.195312" xlink:href="#DejaVuSans-80"/>
     <use x="135.498047" xlink:href="#DejaVuSans-50"/>
     <use x="199.121094" xlink:href="#DejaVuSans-57"/>
     <use x="262.744141" xlink:href="#DejaVuSans-52"/>
    </g>
   </g>
   <g id="text_68">
    <!-- HP295 -->
    <g transform="translate(80.282887 352.564412)scale(0.1 -0.1)">
     <use xlink:href="#DejaVuSans-72"/>
     <use x="75.195312" xlink:href="#DejaVuSans-80"/>
     <use x="135.498047" xlink:href="#DejaVuSans-50"/>
     <use x="199.121094" xlink:href="#DejaVuSans-57"/>
     <use x="262.744141" xlink:href="#DejaVuSans-53"/>
    </g>
   </g>
   <g id="text_69">
    <!-- HP296 -->
    <g transform="translate(83.577701 366.428231)scale(0.1 -0.1)">
     <use xlink:href="#DejaVuSans-72"/>
     <use x="75.195312" xlink:href="#DejaVuSans-80"/>
     <use x="135.498047" xlink:href="#DejaVuSans-50"/>
     <use x="199.121094" xlink:href="#DejaVuSans-57"/>
     <use x="262.744141" xlink:href="#DejaVuSans-54"/>
    </g>
   </g>
   <g id="text_70">
    <!-- HP297 -->
    <g transform="translate(84.199288 336.13155)scale(0.1 -0.1)">
     <use xlink:href="#DejaVuSans-72"/>
     <use x="75.195312" xlink:href="#DejaVuSans-80"/>
     <use x="135.498047" xlink:href="#DejaVuSans-50"/>
     <use x="199.121094" xlink:href="#DejaVuSans-57"/>
     <use x="262.744141" xlink:href="#DejaVuSans-55"/>
    </g>
   </g>
   <g id="text_71">
    <!-- HP299 -->
    <g transform="translate(173.888988 110.151333)scale(0.1 -0.1)">
     <use xlink:href="#DejaVuSans-72"/>
     <use x="75.195312" xlink:href="#DejaVuSans-80"/>
     <use x="135.498047" xlink:href="#DejaVuSans-50"/>
     <use x="199.121094" xlink:href="#DejaVuSans-57"/>
     <use x="262.744141" xlink:href="#DejaVuSans-57"/>
    </g>
   </g>
   <g id="text_72">
    <!-- HP301 -->
    <g transform="translate(79.45388 348.437702)scale(0.1 -0.1)">
     <use xlink:href="#DejaVuSans-72"/>
     <use x="75.195312" xlink:href="#DejaVuSans-80"/>
     <use x="135.498047" xlink:href="#DejaVuSans-51"/>
     <use x="199.121094" xlink:href="#DejaVuSans-48"/>
     <use x="262.744141" xlink:href="#DejaVuSans-49"/>
    </g>
   </g>
   <g id="text_73">
    <!-- HP302 -->
    <g transform="translate(96.240563 342.999177)scale(0.1 -0.1)">
     <use xlink:href="#DejaVuSans-72"/>
     <use x="75.195312" xlink:href="#DejaVuSans-80"/>
     <use x="135.498047" xlink:href="#DejaVuSans-51"/>
     <use x="199.121094" xlink:href="#DejaVuSans-48"/>
     <use x="262.744141" xlink:href="#DejaVuSans-50"/>
    </g>
   </g>
   <g id="text_74">
    <!-- HP306 -->
    <g transform="translate(88.863993 53.845455)scale(0.1 -0.1)">
     <use xlink:href="#DejaVuSans-72"/>
     <use x="75.195312" xlink:href="#DejaVuSans-80"/>
     <use x="135.498047" xlink:href="#DejaVuSans-51"/>
     <use x="199.121094" xlink:href="#DejaVuSans-48"/>
     <use x="262.744141" xlink:href="#DejaVuSans-54"/>
    </g>
   </g>
   <g id="text_75">
    <!-- HP308 -->
    <g transform="translate(97.032745 390.839929)scale(0.1 -0.1)">
     <use xlink:href="#DejaVuSans-72"/>
     <use x="75.195312" xlink:href="#DejaVuSans-80"/>
     <use x="135.498047" xlink:href="#DejaVuSans-51"/>
     <use x="199.121094" xlink:href="#DejaVuSans-48"/>
     <use x="262.744141" xlink:href="#DejaVuSans-56"/>
    </g>
   </g>
   <g id="text_76">
    <!-- HP314 -->
    <g transform="translate(338.823017 193.861951)scale(0.1 -0.1)">
     <use xlink:href="#DejaVuSans-72"/>
     <use x="75.195312" xlink:href="#DejaVuSans-80"/>
     <use x="135.498047" xlink:href="#DejaVuSans-51"/>
     <use x="199.121094" xlink:href="#DejaVuSans-49"/>
     <use x="262.744141" xlink:href="#DejaVuSans-52"/>
    </g>
   </g>
   <g id="text_77">
    <!-- HP316 -->
    <g transform="translate(81.414391 354.785653)scale(0.1 -0.1)">
     <use xlink:href="#DejaVuSans-72"/>
     <use x="75.195312" xlink:href="#DejaVuSans-80"/>
     <use x="135.498047" xlink:href="#DejaVuSans-51"/>
     <use x="199.121094" xlink:href="#DejaVuSans-49"/>
     <use x="262.744141" xlink:href="#DejaVuSans-54"/>
    </g>
   </g>
   <g id="text_78">
    <!-- HP318 -->
    <g transform="translate(91.800408 337.017308)scale(0.1 -0.1)">
     <use xlink:href="#DejaVuSans-72"/>
     <use x="75.195312" xlink:href="#DejaVuSans-80"/>
     <use x="135.498047" xlink:href="#DejaVuSans-51"/>
     <use x="199.121094" xlink:href="#DejaVuSans-49"/>
     <use x="262.744141" xlink:href="#DejaVuSans-56"/>
    </g>
   </g>
   <g id="text_79">
    <!-- HP319 -->
    <g transform="translate(86.724785 186.738169)scale(0.1 -0.1)">
     <use xlink:href="#DejaVuSans-72"/>
     <use x="75.195312" xlink:href="#DejaVuSans-80"/>
     <use x="135.498047" xlink:href="#DejaVuSans-51"/>
     <use x="199.121094" xlink:href="#DejaVuSans-49"/>
     <use x="262.744141" xlink:href="#DejaVuSans-57"/>
    </g>
   </g>
   <g id="text_80">
    <!-- HP323 -->
    <g transform="translate(577.75511 421.201842)scale(0.1 -0.1)">
     <use xlink:href="#DejaVuSans-72"/>
     <use x="75.195312" xlink:href="#DejaVuSans-80"/>
     <use x="135.498047" xlink:href="#DejaVuSans-51"/>
     <use x="199.121094" xlink:href="#DejaVuSans-50"/>
     <use x="262.744141" xlink:href="#DejaVuSans-51"/>
    </g>
   </g>
   <g id="text_81">
    <!-- HP325 -->
    <g transform="translate(530.228374 504.337947)scale(0.1 -0.1)">
     <use xlink:href="#DejaVuSans-72"/>
     <use x="75.195312" xlink:href="#DejaVuSans-80"/>
     <use x="135.498047" xlink:href="#DejaVuSans-51"/>
     <use x="199.121094" xlink:href="#DejaVuSans-50"/>
     <use x="262.744141" xlink:href="#DejaVuSans-53"/>
    </g>
   </g>
   <g id="text_82">
    <!-- HP326 -->
    <g transform="translate(76.263204 376.19681)scale(0.1 -0.1)">
     <use xlink:href="#DejaVuSans-72"/>
     <use x="75.195312" xlink:href="#DejaVuSans-80"/>
     <use x="135.498047" xlink:href="#DejaVuSans-51"/>
     <use x="199.121094" xlink:href="#DejaVuSans-50"/>
     <use x="262.744141" xlink:href="#DejaVuSans-54"/>
    </g>
   </g>
   <g id="text_83">
    <!-- HP327 -->
    <g transform="translate(88.485123 351.305689)scale(0.1 -0.1)">
     <use xlink:href="#DejaVuSans-72"/>
     <use x="75.195312" xlink:href="#DejaVuSans-80"/>
     <use x="135.498047" xlink:href="#DejaVuSans-51"/>
     <use x="199.121094" xlink:href="#DejaVuSans-50"/>
     <use x="262.744141" xlink:href="#DejaVuSans-55"/>
    </g>
   </g>
   <g id="text_84">
    <!-- HP328 -->
    <g transform="translate(83.451276 355.566223)scale(0.1 -0.1)">
     <use xlink:href="#DejaVuSans-72"/>
     <use x="75.195312" xlink:href="#DejaVuSans-80"/>
     <use x="135.498047" xlink:href="#DejaVuSans-51"/>
     <use x="199.121094" xlink:href="#DejaVuSans-50"/>
     <use x="262.744141" xlink:href="#DejaVuSans-56"/>
    </g>
   </g>
   <g id="text_85">
    <!-- HP335 -->
    <g transform="translate(90.936029 360.417691)scale(0.1 -0.1)">
     <use xlink:href="#DejaVuSans-72"/>
     <use x="75.195312" xlink:href="#DejaVuSans-80"/>
     <use x="135.498047" xlink:href="#DejaVuSans-51"/>
     <use x="199.121094" xlink:href="#DejaVuSans-51"/>
     <use x="262.744141" xlink:href="#DejaVuSans-53"/>
    </g>
   </g>
   <g id="text_86">
    <!-- HP338 -->
    <g transform="translate(269.880148 143.795889)scale(0.1 -0.1)">
     <use xlink:href="#DejaVuSans-72"/>
     <use x="75.195312" xlink:href="#DejaVuSans-80"/>
     <use x="135.498047" xlink:href="#DejaVuSans-51"/>
     <use x="199.121094" xlink:href="#DejaVuSans-51"/>
     <use x="262.744141" xlink:href="#DejaVuSans-56"/>
    </g>
   </g>
   <g id="text_87">
    <!-- HP340 -->
    <g transform="translate(95.804548 383.078809)scale(0.1 -0.1)">
     <use xlink:href="#DejaVuSans-72"/>
     <use x="75.195312" xlink:href="#DejaVuSans-80"/>
     <use x="135.498047" xlink:href="#DejaVuSans-51"/>
     <use x="199.121094" xlink:href="#DejaVuSans-52"/>
     <use x="262.744141" xlink:href="#DejaVuSans-48"/>
    </g>
   </g>
   <g id="text_88">
    <!-- HP346 -->
    <g transform="translate(93.960459 343.396713)scale(0.1 -0.1)">
     <use xlink:href="#DejaVuSans-72"/>
     <use x="75.195312" xlink:href="#DejaVuSans-80"/>
     <use x="135.498047" xlink:href="#DejaVuSans-51"/>
     <use x="199.121094" xlink:href="#DejaVuSans-52"/>
     <use x="262.744141" xlink:href="#DejaVuSans-54"/>
    </g>
   </g>
   <g id="text_89">
    <!-- HP347 -->
    <g transform="translate(83.726855 358.326239)scale(0.1 -0.1)">
     <use xlink:href="#DejaVuSans-72"/>
     <use x="75.195312" xlink:href="#DejaVuSans-80"/>
     <use x="135.498047" xlink:href="#DejaVuSans-51"/>
     <use x="199.121094" xlink:href="#DejaVuSans-52"/>
     <use x="262.744141" xlink:href="#DejaVuSans-55"/>
    </g>
   </g>
   <g id="text_90">
    <!-- HP348 -->
    <g transform="translate(538.204777 272.909994)scale(0.1 -0.1)">
     <use xlink:href="#DejaVuSans-72"/>
     <use x="75.195312" xlink:href="#DejaVuSans-80"/>
     <use x="135.498047" xlink:href="#DejaVuSans-51"/>
     <use x="199.121094" xlink:href="#DejaVuSans-52"/>
     <use x="262.744141" xlink:href="#DejaVuSans-56"/>
    </g>
   </g>
   <g id="text_91">
    <!-- HP352 -->
    <g transform="translate(472.814478 156.468358)scale(0.1 -0.1)">
     <use xlink:href="#DejaVuSans-72"/>
     <use x="75.195312" xlink:href="#DejaVuSans-80"/>
     <use x="135.498047" xlink:href="#DejaVuSans-51"/>
     <use x="199.121094" xlink:href="#DejaVuSans-53"/>
     <use x="262.744141" xlink:href="#DejaVuSans-50"/>
    </g>
   </g>
   <g id="text_92">
    <!-- HP176 -->
    <g transform="translate(468.899835 211.937074)scale(0.1 -0.1)">
     <use xlink:href="#DejaVuSans-72"/>
     <use x="75.195312" xlink:href="#DejaVuSans-80"/>
     <use x="135.498047" xlink:href="#DejaVuSans-49"/>
     <use x="199.121094" xlink:href="#DejaVuSans-55"/>
     <use x="262.744141" xlink:href="#DejaVuSans-54"/>
    </g>
   </g>
   <g id="text_93">
    <!-- HP238 -->
    <g transform="translate(485.335125 475.989973)scale(0.1 -0.1)">
     <use xlink:href="#DejaVuSans-72"/>
     <use x="75.195312" xlink:href="#DejaVuSans-80"/>
     <use x="135.498047" xlink:href="#DejaVuSans-50"/>
     <use x="199.121094" xlink:href="#DejaVuSans-51"/>
     <use x="262.744141" xlink:href="#DejaVuSans-56"/>
    </g>
   </g>
   <g id="text_94">
    <!-- HP258 -->
    <g transform="translate(342.380787 158.071397)scale(0.1 -0.1)">
     <use xlink:href="#DejaVuSans-72"/>
     <use x="75.195312" xlink:href="#DejaVuSans-80"/>
     <use x="135.498047" xlink:href="#DejaVuSans-50"/>
     <use x="199.121094" xlink:href="#DejaVuSans-53"/>
     <use x="262.744141" xlink:href="#DejaVuSans-56"/>
    </g>
   </g>
   <g id="text_95">
    <!-- HP283 -->
    <g transform="translate(165.214233 357.493976)scale(0.1 -0.1)">
     <use xlink:href="#DejaVuSans-72"/>
     <use x="75.195312" xlink:href="#DejaVuSans-80"/>
     <use x="135.498047" xlink:href="#DejaVuSans-50"/>
     <use x="199.121094" xlink:href="#DejaVuSans-56"/>
     <use x="262.744141" xlink:href="#DejaVuSans-51"/>
    </g>
   </g>
   <g id="text_96">
    <!-- between sample distances clade D unifrac sqrt -->
    <g transform="translate(196.873011 20.88)scale(0.12 -0.12)">
     <defs>
      <path d="M 48.6875 27.296875 
Q 48.6875 37.203125 44.609375 42.84375 
Q 40.53125 48.484375 33.40625 48.484375 
Q 26.265625 48.484375 22.1875 42.84375 
Q 18.109375 37.203125 18.109375 27.296875 
Q 18.109375 17.390625 22.1875 11.75 
Q 26.265625 6.109375 33.40625 6.109375 
Q 40.53125 6.109375 44.609375 11.75 
Q 48.6875 17.390625 48.6875 27.296875 
z
M 18.109375 46.390625 
Q 20.953125 51.265625 25.265625 53.625 
Q 29.59375 56 35.59375 56 
Q 45.5625 56 51.78125 48.09375 
Q 58.015625 40.1875 58.015625 27.296875 
Q 58.015625 14.40625 51.78125 6.484375 
Q 45.5625 -1.421875 35.59375 -1.421875 
Q 29.59375 -1.421875 25.265625 0.953125 
Q 20.953125 3.328125 18.109375 8.203125 
L 18.109375 0 
L 9.078125 0 
L 9.078125 75.984375 
L 18.109375 75.984375 
z
" id="DejaVuSans-98"/>
      <path d="M 56.203125 29.59375 
L 56.203125 25.203125 
L 14.890625 25.203125 
Q 15.484375 15.921875 20.484375 11.0625 
Q 25.484375 6.203125 34.421875 6.203125 
Q 39.59375 6.203125 44.453125 7.46875 
Q 49.3125 8.734375 54.109375 11.28125 
L 54.109375 2.78125 
Q 49.265625 0.734375 44.1875 -0.34375 
Q 39.109375 -1.421875 33.890625 -1.421875 
Q 20.796875 -1.421875 13.15625 6.1875 
Q 5.515625 13.8125 5.515625 26.8125 
Q 5.515625 40.234375 12.765625 48.109375 
Q 20.015625 56 32.328125 56 
Q 43.359375 56 49.78125 48.890625 
Q 56.203125 41.796875 56.203125 29.59375 
z
M 47.21875 32.234375 
Q 47.125 39.59375 43.09375 43.984375 
Q 39.0625 48.390625 32.421875 48.390625 
Q 24.90625 48.390625 20.390625 44.140625 
Q 15.875 39.890625 15.1875 32.171875 
z
" id="DejaVuSans-101"/>
      <path d="M 18.3125 70.21875 
L 18.3125 54.6875 
L 36.8125 54.6875 
L 36.8125 47.703125 
L 18.3125 47.703125 
L 18.3125 18.015625 
Q 18.3125 11.328125 20.140625 9.421875 
Q 21.96875 7.515625 27.59375 7.515625 
L 36.8125 7.515625 
L 36.8125 0 
L 27.59375 0 
Q 17.1875 0 13.234375 3.875 
Q 9.28125 7.765625 9.28125 18.015625 
L 9.28125 47.703125 
L 2.6875 47.703125 
L 2.6875 54.6875 
L 9.28125 54.6875 
L 9.28125 70.21875 
z
" id="DejaVuSans-116"/>
      <path d="M 4.203125 54.6875 
L 13.1875 54.6875 
L 24.421875 12.015625 
L 35.59375 54.6875 
L 46.1875 54.6875 
L 57.421875 12.015625 
L 68.609375 54.6875 
L 77.59375 54.6875 
L 63.28125 0 
L 52.6875 0 
L 40.921875 44.828125 
L 29.109375 0 
L 18.5 0 
z
" id="DejaVuSans-119"/>
      <path d="M 54.890625 33.015625 
L 54.890625 0 
L 45.90625 0 
L 45.90625 32.71875 
Q 45.90625 40.484375 42.875 44.328125 
Q 39.84375 48.1875 33.796875 48.1875 
Q 26.515625 48.1875 22.3125 43.546875 
Q 18.109375 38.921875 18.109375 30.90625 
L 18.109375 0 
L 9.078125 0 
L 9.078125 54.6875 
L 18.109375 54.6875 
L 18.109375 46.1875 
Q 21.34375 51.125 25.703125 53.5625 
Q 30.078125 56 35.796875 56 
Q 45.21875 56 50.046875 50.171875 
Q 54.890625 44.34375 54.890625 33.015625 
z
" id="DejaVuSans-110"/>
      <path id="DejaVuSans-32"/>
      <path d="M 44.28125 53.078125 
L 44.28125 44.578125 
Q 40.484375 46.53125 36.375 47.5 
Q 32.28125 48.484375 27.875 48.484375 
Q 21.1875 48.484375 17.84375 46.4375 
Q 14.5 44.390625 14.5 40.28125 
Q 14.5 37.15625 16.890625 35.375 
Q 19.28125 33.59375 26.515625 31.984375 
L 29.59375 31.296875 
Q 39.15625 29.25 43.1875 25.515625 
Q 47.21875 21.78125 47.21875 15.09375 
Q 47.21875 7.46875 41.1875 3.015625 
Q 35.15625 -1.421875 24.609375 -1.421875 
Q 20.21875 -1.421875 15.453125 -0.5625 
Q 10.6875 0.296875 5.421875 2 
L 5.421875 11.28125 
Q 10.40625 8.6875 15.234375 7.390625 
Q 20.0625 6.109375 24.8125 6.109375 
Q 31.15625 6.109375 34.5625 8.28125 
Q 37.984375 10.453125 37.984375 14.40625 
Q 37.984375 18.0625 35.515625 20.015625 
Q 33.0625 21.96875 24.703125 23.78125 
L 21.578125 24.515625 
Q 13.234375 26.265625 9.515625 29.90625 
Q 5.8125 33.546875 5.8125 39.890625 
Q 5.8125 47.609375 11.28125 51.796875 
Q 16.75 56 26.8125 56 
Q 31.78125 56 36.171875 55.265625 
Q 40.578125 54.546875 44.28125 53.078125 
z
" id="DejaVuSans-115"/>
      <path d="M 34.28125 27.484375 
Q 23.390625 27.484375 19.1875 25 
Q 14.984375 22.515625 14.984375 16.5 
Q 14.984375 11.71875 18.140625 8.90625 
Q 21.296875 6.109375 26.703125 6.109375 
Q 34.1875 6.109375 38.703125 11.40625 
Q 43.21875 16.703125 43.21875 25.484375 
L 43.21875 27.484375 
z
M 52.203125 31.203125 
L 52.203125 0 
L 43.21875 0 
L 43.21875 8.296875 
Q 40.140625 3.328125 35.546875 0.953125 
Q 30.953125 -1.421875 24.3125 -1.421875 
Q 15.921875 -1.421875 10.953125 3.296875 
Q 6 8.015625 6 15.921875 
Q 6 25.140625 12.171875 29.828125 
Q 18.359375 34.515625 30.609375 34.515625 
L 43.21875 34.515625 
L 43.21875 35.40625 
Q 43.21875 41.609375 39.140625 45 
Q 35.0625 48.390625 27.6875 48.390625 
Q 23 48.390625 18.546875 47.265625 
Q 14.109375 46.140625 10.015625 43.890625 
L 10.015625 52.203125 
Q 14.9375 54.109375 19.578125 55.046875 
Q 24.21875 56 28.609375 56 
Q 40.484375 56 46.34375 49.84375 
Q 52.203125 43.703125 52.203125 31.203125 
z
" id="DejaVuSans-97"/>
      <path d="M 52 44.1875 
Q 55.375 50.25 60.0625 53.125 
Q 64.75 56 71.09375 56 
Q 79.640625 56 84.28125 50.015625 
Q 88.921875 44.046875 88.921875 33.015625 
L 88.921875 0 
L 79.890625 0 
L 79.890625 32.71875 
Q 79.890625 40.578125 77.09375 44.375 
Q 74.3125 48.1875 68.609375 48.1875 
Q 61.625 48.1875 57.5625 43.546875 
Q 53.515625 38.921875 53.515625 30.90625 
L 53.515625 0 
L 44.484375 0 
L 44.484375 32.71875 
Q 44.484375 40.625 41.703125 44.40625 
Q 38.921875 48.1875 33.109375 48.1875 
Q 26.21875 48.1875 22.15625 43.53125 
Q 18.109375 38.875 18.109375 30.90625 
L 18.109375 0 
L 9.078125 0 
L 9.078125 54.6875 
L 18.109375 54.6875 
L 18.109375 46.1875 
Q 21.1875 51.21875 25.484375 53.609375 
Q 29.78125 56 35.6875 56 
Q 41.65625 56 45.828125 52.96875 
Q 50 49.953125 52 44.1875 
z
" id="DejaVuSans-109"/>
      <path d="M 18.109375 8.203125 
L 18.109375 -20.796875 
L 9.078125 -20.796875 
L 9.078125 54.6875 
L 18.109375 54.6875 
L 18.109375 46.390625 
Q 20.953125 51.265625 25.265625 53.625 
Q 29.59375 56 35.59375 56 
Q 45.5625 56 51.78125 48.09375 
Q 58.015625 40.1875 58.015625 27.296875 
Q 58.015625 14.40625 51.78125 6.484375 
Q 45.5625 -1.421875 35.59375 -1.421875 
Q 29.59375 -1.421875 25.265625 0.953125 
Q 20.953125 3.328125 18.109375 8.203125 
z
M 48.6875 27.296875 
Q 48.6875 37.203125 44.609375 42.84375 
Q 40.53125 48.484375 33.40625 48.484375 
Q 26.265625 48.484375 22.1875 42.84375 
Q 18.109375 37.203125 18.109375 27.296875 
Q 18.109375 17.390625 22.1875 11.75 
Q 26.265625 6.109375 33.40625 6.109375 
Q 40.53125 6.109375 44.609375 11.75 
Q 48.6875 17.390625 48.6875 27.296875 
z
" id="DejaVuSans-112"/>
      <path d="M 9.421875 75.984375 
L 18.40625 75.984375 
L 18.40625 0 
L 9.421875 0 
z
" id="DejaVuSans-108"/>
      <path d="M 45.40625 46.390625 
L 45.40625 75.984375 
L 54.390625 75.984375 
L 54.390625 0 
L 45.40625 0 
L 45.40625 8.203125 
Q 42.578125 3.328125 38.25 0.953125 
Q 33.9375 -1.421875 27.875 -1.421875 
Q 17.96875 -1.421875 11.734375 6.484375 
Q 5.515625 14.40625 5.515625 27.296875 
Q 5.515625 40.1875 11.734375 48.09375 
Q 17.96875 56 27.875 56 
Q 33.9375 56 38.25 53.625 
Q 42.578125 51.265625 45.40625 46.390625 
z
M 14.796875 27.296875 
Q 14.796875 17.390625 18.875 11.75 
Q 22.953125 6.109375 30.078125 6.109375 
Q 37.203125 6.109375 41.296875 11.75 
Q 45.40625 17.390625 45.40625 27.296875 
Q 45.40625 37.203125 41.296875 42.84375 
Q 37.203125 48.484375 30.078125 48.484375 
Q 22.953125 48.484375 18.875 42.84375 
Q 14.796875 37.203125 14.796875 27.296875 
z
" id="DejaVuSans-100"/>
      <path d="M 9.421875 54.6875 
L 18.40625 54.6875 
L 18.40625 0 
L 9.421875 0 
z
M 9.421875 75.984375 
L 18.40625 75.984375 
L 18.40625 64.59375 
L 9.421875 64.59375 
z
" id="DejaVuSans-105"/>
      <path d="M 48.78125 52.59375 
L 48.78125 44.1875 
Q 44.96875 46.296875 41.140625 47.34375 
Q 37.3125 48.390625 33.40625 48.390625 
Q 24.65625 48.390625 19.8125 42.84375 
Q 14.984375 37.3125 14.984375 27.296875 
Q 14.984375 17.28125 19.8125 11.734375 
Q 24.65625 6.203125 33.40625 6.203125 
Q 37.3125 6.203125 41.140625 7.25 
Q 44.96875 8.296875 48.78125 10.40625 
L 48.78125 2.09375 
Q 45.015625 0.34375 40.984375 -0.53125 
Q 36.96875 -1.421875 32.421875 -1.421875 
Q 20.0625 -1.421875 12.78125 6.34375 
Q 5.515625 14.109375 5.515625 27.296875 
Q 5.515625 40.671875 12.859375 48.328125 
Q 20.21875 56 33.015625 56 
Q 37.15625 56 41.109375 55.140625 
Q 45.0625 54.296875 48.78125 52.59375 
z
" id="DejaVuSans-99"/>
      <path d="M 19.671875 64.796875 
L 19.671875 8.109375 
L 31.59375 8.109375 
Q 46.6875 8.109375 53.6875 14.9375 
Q 60.6875 21.78125 60.6875 36.53125 
Q 60.6875 51.171875 53.6875 57.984375 
Q 46.6875 64.796875 31.59375 64.796875 
z
M 9.8125 72.90625 
L 30.078125 72.90625 
Q 51.265625 72.90625 61.171875 64.09375 
Q 71.09375 55.28125 71.09375 36.53125 
Q 71.09375 17.671875 61.125 8.828125 
Q 51.171875 0 30.078125 0 
L 9.8125 0 
z
" id="DejaVuSans-68"/>
      <path d="M 8.5 21.578125 
L 8.5 54.6875 
L 17.484375 54.6875 
L 17.484375 21.921875 
Q 17.484375 14.15625 20.5 10.265625 
Q 23.53125 6.390625 29.59375 6.390625 
Q 36.859375 6.390625 41.078125 11.03125 
Q 45.3125 15.671875 45.3125 23.6875 
L 45.3125 54.6875 
L 54.296875 54.6875 
L 54.296875 0 
L 45.3125 0 
L 45.3125 8.40625 
Q 42.046875 3.421875 37.71875 1 
Q 33.40625 -1.421875 27.6875 -1.421875 
Q 18.265625 -1.421875 13.375 4.4375 
Q 8.5 10.296875 8.5 21.578125 
z
M 31.109375 56 
z
" id="DejaVuSans-117"/>
      <path d="M 37.109375 75.984375 
L 37.109375 68.5 
L 28.515625 68.5 
Q 23.6875 68.5 21.796875 66.546875 
Q 19.921875 64.59375 19.921875 59.515625 
L 19.921875 54.6875 
L 34.71875 54.6875 
L 34.71875 47.703125 
L 19.921875 47.703125 
L 19.921875 0 
L 10.890625 0 
L 10.890625 47.703125 
L 2.296875 47.703125 
L 2.296875 54.6875 
L 10.890625 54.6875 
L 10.890625 58.5 
Q 10.890625 67.625 15.140625 71.796875 
Q 19.390625 75.984375 28.609375 75.984375 
z
" id="DejaVuSans-102"/>
      <path d="M 41.109375 46.296875 
Q 39.59375 47.171875 37.8125 47.578125 
Q 36.03125 48 33.890625 48 
Q 26.265625 48 22.1875 43.046875 
Q 18.109375 38.09375 18.109375 28.8125 
L 18.109375 0 
L 9.078125 0 
L 9.078125 54.6875 
L 18.109375 54.6875 
L 18.109375 46.1875 
Q 20.953125 51.171875 25.484375 53.578125 
Q 30.03125 56 36.53125 56 
Q 37.453125 56 38.578125 55.875 
Q 39.703125 55.765625 41.0625 55.515625 
z
" id="DejaVuSans-114"/>
      <path d="M 14.796875 27.296875 
Q 14.796875 17.390625 18.875 11.75 
Q 22.953125 6.109375 30.078125 6.109375 
Q 37.203125 6.109375 41.296875 11.75 
Q 45.40625 17.390625 45.40625 27.296875 
Q 45.40625 37.203125 41.296875 42.84375 
Q 37.203125 48.484375 30.078125 48.484375 
Q 22.953125 48.484375 18.875 42.84375 
Q 14.796875 37.203125 14.796875 27.296875 
z
M 45.40625 8.203125 
Q 42.578125 3.328125 38.25 0.953125 
Q 33.9375 -1.421875 27.875 -1.421875 
Q 17.96875 -1.421875 11.734375 6.484375 
Q 5.515625 14.40625 5.515625 27.296875 
Q 5.515625 40.1875 11.734375 48.09375 
Q 17.96875 56 27.875 56 
Q 33.9375 56 38.25 53.625 
Q 42.578125 51.265625 45.40625 46.390625 
L 45.40625 54.6875 
L 54.390625 54.6875 
L 54.390625 -20.796875 
L 45.40625 -20.796875 
z
" id="DejaVuSans-113"/>
     </defs>
     <use xlink:href="#DejaVuSans-98"/>
     <use x="63.476562" xlink:href="#DejaVuSans-101"/>
     <use x="125" xlink:href="#DejaVuSans-116"/>
     <use x="164.208984" xlink:href="#DejaVuSans-119"/>
     <use x="245.996094" xlink:href="#DejaVuSans-101"/>
     <use x="307.519531" xlink:href="#DejaVuSans-101"/>
     <use x="369.042969" xlink:href="#DejaVuSans-110"/>
     <use x="432.421875" xlink:href="#DejaVuSans-32"/>
     <use x="464.208984" xlink:href="#DejaVuSans-115"/>
     <use x="516.308594" xlink:href="#DejaVuSans-97"/>
     <use x="577.587891" xlink:href="#DejaVuSans-109"/>
     <use x="675" xlink:href="#DejaVuSans-112"/>
     <use x="738.476562" xlink:href="#DejaVuSans-108"/>
     <use x="766.259766" xlink:href="#DejaVuSans-101"/>
     <use x="827.783203" xlink:href="#DejaVuSans-32"/>
     <use x="859.570312" xlink:href="#DejaVuSans-100"/>
     <use x="923.046875" xlink:href="#DejaVuSans-105"/>
     <use x="950.830078" xlink:href="#DejaVuSans-115"/>
     <use x="1002.929688" xlink:href="#DejaVuSans-116"/>
     <use x="1042.138672" xlink:href="#DejaVuSans-97"/>
     <use x="1103.417969" xlink:href="#DejaVuSans-110"/>
     <use x="1166.796875" xlink:href="#DejaVuSans-99"/>
     <use x="1221.777344" xlink:href="#DejaVuSans-101"/>
     <use x="1283.300781" xlink:href="#DejaVuSans-115"/>
     <use x="1335.400391" xlink:href="#DejaVuSans-32"/>
     <use x="1367.1875" xlink:href="#DejaVuSans-99"/>
     <use x="1422.167969" xlink:href="#DejaVuSans-108"/>
     <use x="1449.951172" xlink:href="#DejaVuSans-97"/>
     <use x="1511.230469" xlink:href="#DejaVuSans-100"/>
     <use x="1574.707031" xlink:href="#DejaVuSans-101"/>
     <use x="1636.230469" xlink:href="#DejaVuSans-32"/>
     <use x="1668.017578" xlink:href="#DejaVuSans-68"/>
     <use x="1745.019531" xlink:href="#DejaVuSans-32"/>
     <use x="1776.806641" xlink:href="#DejaVuSans-117"/>
     <use x="1840.185547" xlink:href="#DejaVuSans-110"/>
     <use x="1903.564453" xlink:href="#DejaVuSans-105"/>
     <use x="1931.347656" xlink:href="#DejaVuSans-102"/>
     <use x="1966.552734" xlink:href="#DejaVuSans-114"/>
     <use x="2007.666016" xlink:href="#DejaVuSans-97"/>
     <use x="2068.945312" xlink:href="#DejaVuSans-99"/>
     <use x="2123.925781" xlink:href="#DejaVuSans-32"/>
     <use x="2155.712891" xlink:href="#DejaVuSans-115"/>
     <use x="2207.8125" xlink:href="#DejaVuSans-113"/>
     <use x="2271.289062" xlink:href="#DejaVuSans-114"/>
     <use x="2312.402344" xlink:href="#DejaVuSans-116"/>
    </g>
   </g>
  </g>
 </g>
 <defs>
  <clipPath id="p200e569442">
   <rect height="593.24" width="579.317273" x="48.31" y="26.88"/>
  </clipPath>
 </defs>
</svg>
